<?xml version="1.0" encoding="UTF-8" standalone="no"?>
<!-- Generator: Adobe Fireworks 10, Export SVG Extension by Aaron Beall (http://fireworks.abeall.com) . Version: 0.6.1  -->
<!DOCTYPE svg PUBLIC "-//W3C//DTD SVG 1.1//EN" "http://www.w3.org/Graphics/SVG/1.1/DTD/svg11.dtd">
<svg id="Untitled-Page%201" viewBox="0 0 608 91" style="background-color:#ffffff00" version="1.1" xmlns="http://www.w3.org/2000/svg" xmlns:xlink="http://www.w3.org/1999/xlink" xml:space="preserve" x="0px" y="0px" width="608px" height="91px">
	<defs>
		<filter id="filter1" x="-100%" y="-100%" width="300%" height="300%">
			<!-- Glow -->
			<feColorMatrix result="out" in="SourceGraphic" type="matrix" values="0 0 0 0.1333 0  0 0 0 0.1333 0  0 0 0 0.1333 0  0 0 0 0.2 0"/>
			<feMorphology result="out" in="out" operator="dilate" radius="1"/>
			<feGaussianBlur result="out" in="out" stdDeviation="2"/>
			<feBlend in="SourceGraphic" in2="out" mode="normal" result="Glow1"/>
		</filter>
		<filter id="filter2" x="-100%" y="-100%" width="300%" height="300%">
			<!-- Glow -->
			<feColorMatrix result="out" in="SourceGraphic" type="matrix" values="0 0 0 0.1333 0  0 0 0 0.1333 0  0 0 0 0.1333 0  0 0 0 0.2 0"/>
			<feMorphology result="out" in="out" operator="dilate" radius="1"/>
			<feGaussianBlur result="out" in="out" stdDeviation="2"/>
			<feBlend in="SourceGraphic" in2="out" mode="normal" result="Glow2"/>
		</filter>
		<filter id="filter3" x="-100%" y="-100%" width="300%" height="300%">
			<!-- Glow -->
			<feColorMatrix result="out" in="SourceGraphic" type="matrix" values="0 0 0 0.1333 0  0 0 0 0.1333 0  0 0 0 0.1333 0  0 0 0 0.2 0"/>
			<feMorphology result="out" in="out" operator="dilate" radius="1"/>
			<feGaussianBlur result="out" in="out" stdDeviation="2"/>
			<feBlend in="SourceGraphic" in2="out" mode="normal" result="Glow3"/>
		</filter>
		<filter id="filter4" x="-100%" y="-100%" width="300%" height="300%">
			<!-- Glow -->
			<feColorMatrix result="out" in="SourceGraphic" type="matrix" values="0 0 0 0.1333 0  0 0 0 0.1333 0  0 0 0 0.1333 0  0 0 0 0.2 0"/>
			<feMorphology result="out" in="out" operator="dilate" radius="1"/>
			<feGaussianBlur result="out" in="out" stdDeviation="2"/>
			<feBlend in="SourceGraphic" in2="out" mode="normal" result="Glow4"/>
		</filter>
		<filter id="filter5" x="-100%" y="-100%" width="300%" height="300%">
			<!-- Glow -->
			<feColorMatrix result="out" in="SourceGraphic" type="matrix" values="0 0 0 0.1333 0  0 0 0 0.1333 0  0 0 0 0.1333 0  0 0 0 0.2 0"/>
			<feMorphology result="out" in="out" operator="dilate" radius="1"/>
			<feGaussianBlur result="out" in="out" stdDeviation="2"/>
			<feBlend in="SourceGraphic" in2="out" mode="normal" result="Glow5"/>
		</filter>
		<filter id="filter6" x="-100%" y="-100%" width="300%" height="300%">
			<!-- Glow -->
			<feColorMatrix result="out" in="SourceGraphic" type="matrix" values="0 0 0 0.1333 0  0 0 0 0.1333 0  0 0 0 0.1333 0  0 0 0 0.2 0"/>
			<feMorphology result="out" in="out" operator="dilate" radius="1"/>
			<feGaussianBlur result="out" in="out" stdDeviation="2"/>
			<feBlend in="SourceGraphic" in2="out" mode="normal" result="Glow6"/>
		</filter>
		<filter id="filter7" x="-100%" y="-100%" width="300%" height="300%">
			<!-- Glow -->
			<feColorMatrix result="out" in="SourceGraphic" type="matrix" values="0 0 0 0.1333 0  0 0 0 0.1333 0  0 0 0 0.1333 0  0 0 0 0.2 0"/>
			<feMorphology result="out" in="out" operator="dilate" radius="1"/>
			<feGaussianBlur result="out" in="out" stdDeviation="2"/>
			<feBlend in="SourceGraphic" in2="out" mode="normal" result="Glow7"/>
		</filter>
		<filter id="filter8" x="-100%" y="-100%" width="300%" height="300%">
			<!-- Glow -->
			<feColorMatrix result="out" in="SourceGraphic" type="matrix" values="0 0 0 0.1333 0  0 0 0 0.1333 0  0 0 0 0.1333 0  0 0 0 0.2 0"/>
			<feMorphology result="out" in="out" operator="dilate" radius="1"/>
			<feGaussianBlur result="out" in="out" stdDeviation="2"/>
			<feBlend in="SourceGraphic" in2="out" mode="normal" result="Glow8"/>
		</filter>
		<filter id="filter9" x="-100%" y="-100%" width="300%" height="300%">
			<!-- Glow -->
			<feColorMatrix result="out" in="SourceGraphic" type="matrix" values="0 0 0 0.1333 0  0 0 0 0.1333 0  0 0 0 0.1333 0  0 0 0 0.2 0"/>
			<feMorphology result="out" in="out" operator="dilate" radius="1"/>
			<feGaussianBlur result="out" in="out" stdDeviation="2"/>
			<feBlend in="SourceGraphic" in2="out" mode="normal" result="Glow9"/>
		</filter>
	</defs>
	<g id="Layer_1_1">
		<path filter="url(#filter1)" d="M 103.8834 42.2643 C 104.2282 42.0057 104.4607 41.7538 104.7107 41.3439 C 105.0027 40.8661 105.2073 40.3385 105.6024 39.9407 C 106.4267 39.11 107.734 38.722 108.4158 37.7606 C 109.0589 36.8562 108.7229 35.6414 108.4187 34.6761 C 107.9621 33.2348 108.6541 31.8732 108.1291 30.533 C 108.007 30.2221 108.0808 29.7813 107.884 29.5612 C 107.0176 28.59 106.7217 27.3913 106.8086 26.2068 C 106.8765 25.2864 107.4 24.3918 107.7638 23.502 C 107.9357 23.0833 108.3279 22.7397 108.3958 22.28 C 108.4319 22.032 108.363 21.8168 108.4158 21.5649 C 108.5271 21.0291 108.6228 20.3614 109.2679 20.3277 C 109.7993 20.3009 110.5381 19.3121 110.7261 18.6322 C 111.1134 17.232 112.7093 17.1129 113.1815 17.2012 C 114.756 17.496 115.8918 16.7391 117.018 16.1056 C 118.7765 15.1172 120.7294 14.861 122.5807 14.2373 C 123.6438 13.8795 124.7529 13.6565 125.8223 13.3149 C 127.4676 12.7883 129.0938 11.7916 130.7327 11.7785 C 132.289 11.7658 133.7653 11.023 135.4945 11.5935 C 136.4458 11.9073 137.7966 11.6067 138.9789 12.0367 C 139.9072 12.3734 139.6078 13.206 139.9702 13.7165 C 140.6402 14.6604 139.935 14.6624 139.3988 15.1148 C 139.0267 15.4281 138.6649 15.7527 138.3098 16.0846 C 137.5675 16.7781 136.8565 17.5029 136.1396 18.2208 C 135.8427 18.5195 135.5844 18.8611 135.2215 19.072 C 134.7893 19.3233 134.3474 19.5581 133.9001 19.7821 C 132.1269 20.6733 130.2707 21.3863 128.4203 22.0969 C 127.0242 22.6328 125.629 23.1672 124.2328 23.7031 C 123.7259 23.8979 122.9787 24.0399 122.7209 24.5836 C 122.5089 25.0326 122.7507 25.504 123.115 25.7871 C 123.8021 26.3176 123.7581 26.5099 123.0539 27.0195 C 122.5289 27.4001 122.0665 27.813 122.401 28.6759 C 122.5348 29.0205 122.0509 29.6003 121.8584 30.0781 C 121.4517 31.0927 120.9487 32.082 120.6684 33.1319 C 119.9217 35.9323 119.2644 38.7572 118.5875 41.5757 C 118.4215 42.2682 118.6412 42.789 119.4402 42.7621 C 121.6465 42.6884 123.8519 42.5723 126.0572 42.4684 C 128.7524 42.3415 131.0667 40.9432 133.5792 40.2433 C 135.5414 39.6957 137.4318 38.9529 139.3949 38.438 C 140.4209 38.1696 141.2941 38.9202 141.0011 39.9783 C 140.7511 40.8812 140.2442 41.7665 139.6611 42.5093 C 138.7699 43.6436 137.7429 44.6773 136.7198 45.6988 C 136.1255 46.2928 135.4633 46.8374 134.7644 47.304 C 134.0373 47.7901 133.297 48.2577 132.5581 48.7242 C 131.8778 49.1532 131.0501 49.5432 130.468 50.1001 C 129.924 50.6208 129.1465 50.8927 128.4687 51.2172 C 127.6903 51.592 126.9084 51.9571 126.1222 52.3129 C 125.4063 52.6365 124.686 52.9537 123.9617 53.2622 C 123.3059 53.5433 122.5216 53.7502 121.9249 54.1387 C 121.6407 54.3247 121.3496 54.1807 121.0527 54.1949 C 120.6815 54.2119 120.2743 54.4208 119.9124 54.5077 C 119.7083 54.557 119.4963 54.5506 119.2995 54.6287 C 118.7032 54.8654 118.7062 55.5565 118.7702 56.1041 C 119.1105 59.0427 120.9614 60.3043 122.968 61.6484 C 123.7098 62.1453 124.7241 61.9051 125.586 62.0555 C 127.4793 62.3849 129.2955 62.2492 131.1687 61.9334 C 133.6652 61.5127 136.2124 61.3936 138.7098 60.9739 C 141.6452 60.48 144.5245 60.2013 147.3471 61.4644 C 147.731 61.6367 148.1773 61.6665 148.5802 61.8022 C 149.5452 62.1272 149.7703 62.9676 149.1521 63.7334 C 148.4913 64.5533 147.9102 65.4396 147.2138 66.2283 C 146.7357 66.7701 145.9798 67.0981 145.595 67.6837 C 144.2964 69.6618 141.8743 69.8639 140.1973 71.2294 C 139.8061 71.5467 139.2211 71.8024 138.7308 71.7917 C 136.5386 71.7438 134.8455 73.2139 132.8242 73.6267 C 131.3001 73.9372 129.7506 74.1304 128.2104 74.3569 C 125.4981 74.7532 122.6779 74.8059 120.1033 75.6288 C 118.0601 76.2818 116.2571 75.9421 114.3497 75.6639 C 113.4418 75.5321 112.6536 75.3545 112.1375 74.2319 C 111.7355 73.3583 110.5591 72.8049 109.6679 72.1958 C 107.7809 70.9054 106.3305 69.1781 105.7924 67.0268 C 105.2215 64.748 105.1463 62.339 104.9095 59.9822 C 104.8167 59.0608 104.5832 58.1569 104.5305 57.2305 C 104.5036 56.7557 104.5246 56.2779 104.6306 55.8123 C 104.7126 55.4506 104.9173 55.0768 104.7996 54.6975 C 104.6824 54.3227 104.3034 54.045 104.0934 53.718 C 103.6632 53.0504 103.2354 52.3817 102.8271 51.7023 C 102.458 51.0864 101.6839 51.3763 101.555 51.5423 C 99.7926 53.8293 97.5936 55.6541 95.3223 57.3696 C 93.3928 58.827 91.3716 60.2091 89.2414 61.3434 C 87.035 62.5191 84.689 63.4767 82.3235 64.2942 C 81.1402 64.7022 79.768 64.5314 78.4978 64.7261 C 77.8121 64.832 76.981 64.8818 76.4189 65.3376 C 75.6068 65.9975 76.3447 67.3777 76.709 68.1147 C 77.4957 69.7116 78.55 71.2441 80.4233 71.5135 C 81.9763 71.737 83.5097 72.2446 85.1959 71.7809 C 86.8739 71.3212 88.6944 71.4022 90.4305 71.1181 C 91.9546 70.8692 93.4358 70.3534 94.9623 70.1206 C 96.8254 69.8355 98.7128 69.6218 100.5949 69.5759 C 101.659 69.55 102.7641 69.8238 103.7882 70.1537 C 104.4084 70.3524 105.4134 71.0552 105.1746 71.8522 C 105.0916 72.1284 104.7136 72.4847 104.4953 72.6633 C 103.3595 73.5955 102.0141 74.312 101.0129 75.3613 C 99.1299 77.3369 96.5421 77.6473 94.2103 78.5454 C 91.6978 79.5127 89.1374 80.36 86.5833 81.2121 C 84.4917 81.91 82.4143 82.7133 80.2661 83.1604 C 76.3207 83.9813 72.3114 84.1541 68.6205 82.2126 C 66.6325 81.1682 65.0434 79.5664 64.6644 77.1115 C 64.4891 75.9763 63.9241 74.8742 63.8933 73.7478 C 63.8352 71.6365 63.6081 69.5237 63.5403 67.4197 C 63.488 65.7715 63.3479 64.0453 63.2941 62.3561 C 63.2521 61.0686 63.5803 59.7533 63.427 58.4887 C 63.3142 57.5644 63.5452 56.6488 63.5842 55.7283 C 63.6042 55.2476 63.5613 54.7878 63.4299 54.3247 C 63.2878 53.821 63.4001 53.4384 63.5461 52.9337 C 63.6531 52.5647 63.7493 52.1357 63.6052 51.7619 C 63.4592 51.3841 63.2609 51.1333 63.2761 50.7014 C 63.3 49.961 63.7683 49.3284 63.885 48.6076 C 64.2513 46.3328 65.4302 44.2956 65.9415 41.9798 C 66.2945 40.3804 66.5275 38.7581 66.8234 37.1481 C 66.9763 36.3193 67.1457 35.4926 67.3557 34.6761 C 67.5027 34.1031 67.7195 33.5213 67.6477 32.92 C 67.5838 32.3842 67.1706 31.9171 67.0305 31.3817 C 66.7936 30.4729 66.8063 29.5095 66.7067 28.5798 C 66.6525 28.0751 66.7995 27.568 67.0515 27.1337 C 67.2927 26.7188 67.7415 26.4548 67.8309 25.974 C 67.9388 25.3932 67.5647 24.6285 68.6239 24.5445 C 68.8036 24.5299 68.9218 24.1028 69.125 23.932 C 69.4419 23.6631 69.8258 23.4742 70.1461 23.2082 C 70.6359 22.8027 71.0491 22.2819 71.5833 21.9549 C 72.1742 21.5923 72.8613 21.3819 73.5152 21.1272 C 74.1745 20.8695 74.8264 20.5415 75.5125 20.4175 C 76.5517 20.2306 77.6178 20.2038 78.6712 20.092 C 79.2791 20.0266 79.8842 19.9329 80.4893 19.845 C 82.8695 19.501 85.215 19.9949 87.5683 20.073 C 89.3376 20.1315 90.7147 21.0022 92.3106 21.2741 C 93.4958 21.4771 94.3802 22.1696 94.4701 23.1433 C 94.5541 24.0531 94.117 25.2263 93.5022 25.9282 C 92.7619 26.7744 91.6509 27.3806 90.5926 27.8433 C 89.3713 28.3787 88.2891 29.1035 86.6839 28.9395 C 85.6081 28.8306 84.523 28.9785 83.4706 29.2006 C 82.6033 29.3836 81.6833 29.5124 80.8643 29.8682 C 80.2514 30.1362 79.9521 30.9449 79.5233 31.4363 C 78.1891 32.9679 77.6969 34.9289 77.3238 36.7869 C 76.521 40.7782 75.6698 44.8354 75.6346 48.8716 C 75.6156 50.9795 76.6489 53.3173 79.621 54.1778 C 81.1456 54.6199 82.6565 55.0826 84.1299 54.9455 C 85.6349 54.8054 87.1381 54.1089 88.5303 53.4271 C 89.8376 52.7878 90.9945 51.8419 92.2276 51.0464 C 94.0272 49.8829 95.7852 48.7242 97.2756 47.1053 C 98.2787 46.0165 99.4649 45.1131 100.6809 44.2785 C 101.6351 43.6231 102.667 43.0901 103.6295 42.4444 C 103.7203 42.3824 103.8043 42.3234 103.8834 42.2643 L 103.8834 42.2643 Z" fill="#ffffff"/>
		<path filter="url(#filter2)" d="M 297.839 54.6151 C 297.6354 55.925 297.3722 57.2315 297.2574 58.5497 C 296.7701 64.1756 296.1821 69.7618 295.5531 75.3808 C 295.43 76.4819 295.3822 78.4185 294.5578 79.2716 C 293.8996 79.9529 292.5395 80.0417 291.7166 80.6069 C 290.6692 81.3253 288.453 81.3234 287.281 80.154 C 285.9918 78.8675 284.5497 77.5478 284.2664 75.5848 C 284.1253 74.6019 284.2503 73.5828 284.1873 72.5843 C 284.1092 71.3466 283.8606 70.1118 283.8665 68.876 C 283.8763 67.1698 284.0252 65.4616 284.1717 63.7588 C 284.2904 62.3693 284.3783 60.9481 284.6083 59.5717 C 284.6855 59.1149 284.7294 58.806 284.2137 58.643 C 283.6052 58.4502 282.9665 58.6679 282.3912 58.866 C 281.142 59.2935 279.9167 59.7665 278.6685 60.1823 C 277.6557 60.5171 276.6424 60.8529 275.6296 61.1887 C 274.6334 61.5196 273.5619 61.7787 272.5989 62.1965 C 272.2268 62.3581 271.8859 62.4913 271.4918 62.6123 C 271.3126 62.668 270.4097 62.9301 270.4097 63.1848 C 269.7265 63.9154 269.3914 64.9901 268.9724 65.9448 C 267.9865 68.1947 267.126 70.5056 266.0399 72.7053 C 265.4212 73.9606 262.0145 74.8488 260.6774 74.3539 C 259.2661 73.8317 259.437 72.4564 259.23 71.4256 C 258.7079 68.8311 258.329 66.1927 258.8823 63.5309 C 258.9291 63.3029 258.8881 63.0569 258.8881 62.7602 C 257.2361 62.3561 255.793 61.7333 254.7748 60.3282 C 254.0296 59.2984 254.1424 58.131 254.6576 57.3018 C 255.0947 56.597 255.2978 56.0211 255.3589 55.2217 C 255.4258 54.35 255.9077 53.6394 256.4908 53.0206 C 256.7858 52.7077 257.1017 52.4159 257.4021 52.1079 C 257.7791 51.7204 258.1751 51.2275 258.1009 50.6828 C 258.056 50.349 258.0863 49.9971 258.3929 49.8018 C 258.934 49.4583 259.6841 49.7389 260.2701 49.5242 C 260.4455 49.4592 260.6472 49.467 260.8445 49.4412 C 261.3855 46.2796 261.9373 43.1453 262.4506 40.0046 C 262.6557 38.7464 263.0469 37.4277 262.8457 36.2203 C 262.6845 35.2539 262.5776 34.2802 262.5536 33.3237 C 262.5366 32.6692 262.9858 32.0152 263.1206 31.3407 C 263.2198 30.8477 263.1157 30.3192 263.1617 29.8111 C 263.1836 29.5486 263.2735 29.2465 263.4366 29.0498 C 264.0299 28.3353 264.6921 27.6774 265.2679 26.9506 C 265.5272 26.6236 265.2478 26.2239 264.9509 26.12 C 264.5598 25.9833 264.1447 25.9101 263.7296 25.9184 C 263.3106 25.9243 263.0059 26.0892 262.6137 26.2078 C 261.7254 26.4748 260.8523 26.793 259.9561 27.0365 C 259.2661 27.2244 258.5619 27.3704 257.847 27.4133 C 257.2849 27.4494 256.7199 27.3513 256.2789 27.7881 C 256.0499 28.0141 255.8526 28.2752 255.6748 28.5432 C 255.4297 28.9136 254.9628 29.5735 255.0707 30.0542 C 255.1288 30.308 255.1015 30.6848 254.9486 30.8668 C 253.7566 32.289 253.6917 34.1494 253.0036 35.6815 C 252.4732 36.8601 252.8273 38.1735 251.8721 39.3541 C 251.0409 40.3814 251.2021 42.2565 251.0424 43.77 C 250.7381 46.6573 250.5242 49.5539 250.261 52.4456 C 250.1502 53.6673 249.613 54.8039 249.548 56.0431 C 249.5148 56.6561 249.2838 57.1705 249.236 57.7806 C 249.1398 59.0119 249.6731 60.235 249.3908 61.4605 C 249.3229 61.7563 249.108 62.0213 249.0616 62.317 C 248.7047 64.5982 248.2847 66.874 248.0576 69.1698 C 247.834 71.4344 245.2975 74.1519 243.0013 74.3578 C 241.7697 74.4682 240.4526 73.2578 240.1586 71.8161 C 239.7997 70.0518 239.3397 68.3074 239.0237 66.5363 C 238.8206 65.3976 238.8406 64.2205 238.6784 63.074 C 238.5593 62.2375 238.1335 61.4156 238.1452 60.5942 C 238.1794 58.3819 238.3366 56.17 238.5163 53.964 C 238.6633 52.1767 238.8884 50.3968 239.1258 48.6198 C 239.3367 47.0312 239.6327 45.4543 239.8475 43.8666 C 239.9276 43.279 239.8348 42.6694 239.9066 42.0799 C 240.0595 40.8173 240.0439 39.4688 240.5136 38.3272 C 241.0367 37.0578 240.9317 35.7527 241.2657 34.5111 C 241.4478 33.8366 242.2668 33.3515 242.5281 32.676 C 242.8211 31.9156 243.1551 30.8619 242.847 30.2533 C 242.426 29.4236 241.6368 30.04 240.9707 30.4661 C 240.4248 30.8151 239.6879 31.0337 239.0374 31.0259 C 235.6561 30.982 232.4989 32.225 229.2041 32.6531 C 226.9171 32.9498 224.6029 33.6385 222.3535 33.4657 C 219.5749 33.2519 216.9715 33.9454 214.2905 34.1914 C 212.0602 34.3974 209.8646 34.3861 207.7784 33.5687 C 206.9355 33.2378 206.4755 32.4491 206.8862 31.3934 C 207.5894 29.5895 208.0616 27.6764 208.9314 25.9633 C 209.9305 23.994 211.1748 22.1311 212.4953 20.3575 C 212.8782 19.8441 213.8803 19.603 214.6133 19.5742 C 216.9105 19.4854 219.2169 19.6142 221.5161 19.5351 C 222.3965 19.5039 223.2545 19.0603 224.1404 18.9402 C 225.3847 18.7723 226.6461 18.6967 227.9012 18.6454 C 228.6332 18.6156 229.3872 18.8333 230.1002 18.7284 C 231.8338 18.4765 233.5357 17.989 235.2732 17.804 C 237.1324 17.6049 239.0315 17.7669 240.8867 17.5473 C 243.0091 17.2959 245.0953 16.7552 247.2108 16.4267 C 248.481 16.2305 249.7761 16.1988 251.06 16.0958 C 252.1494 16.0079 253.2394 15.9269 254.3304 15.8386 C 255.774 15.721 257.2209 15.619 258.662 15.474 C 259.8062 15.3588 260.9445 15.1812 262.0878 15.045 C 263.7188 14.8522 265.3519 14.6795 266.9834 14.4803 C 268.1843 14.3344 269.3797 14.1416 270.5825 14.0089 C 271.9011 13.8629 273.2299 13.8029 274.544 13.6306 C 276.9174 13.3188 279.2687 13.0152 281.3359 11.5408 C 281.857 11.1699 282.9855 11.3841 283.7293 11.6369 C 285.9747 12.3993 286.675 14.9655 285.0556 16.6756 C 283.1071 18.7303 281.1269 20.8065 278.0518 21.2013 C 277.4848 21.2731 276.7357 21.6172 276.4866 22.0657 C 276.1482 22.6787 276.0554 23.5001 277.1894 23.791 C 278.2915 24.074 278.4346 24.8198 277.9258 25.8403 C 277.4448 26.8076 277.2274 27.9092 276.7264 28.8648 C 275.2604 31.6623 275.5803 34.8332 274.7823 37.7776 C 274.2593 39.704 274.4063 41.8026 274.1499 43.811 C 273.9682 45.239 273.6581 46.6554 273.3202 48.0561 C 273.0682 49.0976 272.6067 50.0898 272.3718 51.1333 C 272.1208 52.249 272.9808 52.9596 274.3291 52.8605 C 276.0486 52.7336 277.7944 52.7478 279.4778 52.4266 C 280.7411 52.187 281.9273 51.5262 283.1393 51.0337 C 283.5076 50.8844 283.8372 50.6437 284.2054 50.4939 C 285.7955 49.8409 286.8596 48.7403 287.345 47.0595 C 288.0101 44.7603 289.0303 42.5186 289.3423 40.1774 C 289.4849 39.112 289.8453 38.0924 290.0363 37.0358 C 290.1334 36.4975 290.2072 35.9245 290.1432 35.3779 C 290.0714 34.7659 290.0592 34.3583 290.2653 33.7883 C 290.3981 33.4208 290.3214 32.981 290.277 32.6043 C 290.1725 31.7224 290.1735 30.9048 291.0725 30.4539 C 291.3455 30.3172 291.6366 29.7843 291.5814 29.4973 C 291.1985 27.4606 292.7226 26.6139 293.8058 25.3542 C 294.2927 24.7876 295.0047 24.2468 295.7137 24.0199 C 296.2929 23.8349 296.8892 23.5211 297.483 23.4073 C 298.0984 23.2883 298.8983 23.4581 299.5067 23.5674 C 299.7133 23.604 299.9604 23.6524 300.1245 23.7929 C 300.2686 23.9179 300.3257 24.0848 300.4815 24.2029 C 300.7056 24.3717 301.3146 24.7456 301.6086 24.5577 C 302.9808 23.6753 303.2748 25.1234 303.6743 25.3981 C 303.7798 25.4704 303.8452 26.0072 303.8833 26.14 C 303.9614 26.4182 304.0405 26.6969 304.1177 26.9755 C 304.2642 27.4933 304.3326 28.0522 304.2544 28.591 C 304.2163 28.8506 304.0708 29.1244 303.9937 29.3816 C 303.8022 30.0264 303.6137 30.6721 303.1976 31.2158 C 302.3821 32.2831 302.429 34.0045 302.0847 35.4369 C 301.6916 37.069 301.424 38.7191 300.8467 40.3253 C 300.3438 41.725 300.3325 43.2941 300.0454 44.7773 C 299.5634 47.2742 299.0497 49.7643 298.5154 52.249 C 298.3533 53.0035 298.0822 53.7341 297.861 54.475 C 297.8532 54.5219 297.8463 54.5687 297.839 54.6151 L 297.839 54.6151 Z" fill="#ffffff"/>
		<path filter="url(#filter3)" d="M 344.1805 67.8858 C 343.8182 66.9546 342.6901 65.873 341.5015 65.75 C 341.2026 65.7188 340.8891 65.6568 340.559 65.5919 C 339.7444 65.4323 338.7091 65.2732 337.7344 65.4523 C 336.2 65.7368 334.6305 65.8188 332.9691 65.9048 C 332.1292 65.9487 331.2873 65.9931 330.4522 66.0629 C 329.624 66.1327 328.7977 66.2249 327.9714 66.3167 C 326.9488 66.4309 325.8901 66.5475 324.8606 66.6154 C 324.0959 66.6676 323.3351 66.6188 322.5127 66.5685 C 322.2597 66.5548 322.0067 66.5378 321.7538 66.5255 C 320.9031 66.4836 320.0534 66.4289 319.2027 66.3728 L 317.9906 66.2957 C 316.6516 66.2117 315.6807 65.8969 315.1074 65.3611 C 314.3729 64.6734 313.7274 63.648 313.3787 62.6153 C 312.9509 61.3468 312.8571 59.9056 312.82 58.6645 C 312.7966 57.8738 312.8552 57.0661 312.9196 56.3115 L 313.0378 55.0182 C 313.0427 54.9562 313.0456 54.8952 313.0476 54.8352 C 313.5623 54.802 314.0838 54.801 314.6357 54.799 C 315.5635 54.7981 316.5226 54.7951 317.4915 54.637 C 319.1841 54.3583 320.863 53.9625 322.4873 53.5784 C 323.1495 53.4218 323.8127 53.2646 324.4778 53.1158 C 324.6468 53.0767 324.9622 53.006 325.263 52.8297 C 325.4056 52.7468 325.5531 52.6521 325.7045 52.554 C 325.9741 52.3802 326.3433 52.1411 326.5367 52.1191 L 326.8033 52.1255 C 326.9947 52.1255 327.1617 52.1084 327.3297 52.0694 C 327.6813 51.9883 328.0407 51.8712 328.492 51.6916 C 329.4814 51.2968 330.3604 50.7677 331.2101 50.2562 C 331.5139 50.0732 331.8186 49.8902 332.1253 49.7145 C 333.5522 48.8999 334.8834 47.9375 336.1717 47.0068 L 336.9013 46.4831 C 337.29 46.2122 337.7764 45.874 338.1172 45.3386 C 338.5656 44.6309 338.4933 43.8281 338.4552 43.4181 C 338.4181 43.0174 338.3683 42.4679 338.1612 41.9988 C 337.8721 41.3424 337.2431 40.9495 336.4784 40.9495 C 336.1942 40.9495 335.9334 40.9993 335.7439 41.0364 L 335.6433 41.0554 C 334.9245 41.1852 334.2193 41.3522 333.5366 41.5152 C 333.0033 41.6421 332.47 41.7699 331.9319 41.8768 L 331.3537 41.993 C 329.456 42.3717 327.4928 42.7656 325.5619 43.0716 C 323.9298 43.3312 322.1953 43.5884 320.5017 43.6382 C 319.6891 43.6631 318.8599 43.5572 317.975 43.4454 C 317.4515 43.3795 316.9289 43.3146 316.4064 43.2736 C 316.2003 43.2575 316.046 43.2356 315.9337 43.2155 C 315.9708 43.1126 316.0275 42.9793 316.1115 42.8076 C 316.3361 42.3478 316.3849 41.8832 316.424 41.5093 C 316.4396 41.3692 316.4611 41.1623 316.4885 41.0754 C 317.009 40.4766 317.054 39.8451 317.0823 39.4644 C 317.0901 39.3433 317.0979 39.2384 317.1174 39.1662 C 317.2718 38.5698 317.4554 37.9826 317.6507 37.3613 L 317.8871 36.5936 C 317.9164 36.4975 317.9447 36.4004 317.9818 36.3057 L 318.3998 35.248 C 318.6772 34.5472 318.9546 33.8469 319.2202 33.1431 C 319.3179 32.8893 319.3941 32.6262 319.4683 32.3646 C 319.5553 32.0616 319.6373 31.7765 319.7467 31.5657 C 319.9342 31.204 320.0836 30.8443 320.2302 30.4944 C 320.4597 29.9458 320.6755 29.427 320.9842 29.042 C 321.1717 28.8082 321.3963 28.6461 321.6512 28.5612 C 322.3769 28.3201 323.088 28.0644 323.8 27.5866 C 323.923 27.5036 324.0432 27.4187 324.1613 27.3338 C 324.3225 27.2176 324.4817 27.1019 324.6595 26.9999 C 324.8782 26.874 325.1019 26.754 325.3236 26.6339 L 325.682 26.4382 C 326.4331 26.0253 327.2223 25.5538 327.9079 24.912 C 328.5096 24.3464 329.3935 23.9486 330.3291 23.5274 C 330.5323 23.4366 330.7335 23.3459 330.9318 23.2526 C 331.5588 22.9608 332.2073 22.7119 332.8929 22.4478 C 333.5405 22.1994 334.2105 21.9412 334.8698 21.6416 C 335.3855 21.4053 335.9002 21.1618 336.41 20.9129 C 336.5829 20.828 336.7577 20.7328 336.9345 20.6367 C 337.2148 20.4849 337.4795 20.3399 337.7041 20.2662 C 338.588 19.9724 339.3274 19.3077 339.7855 18.395 C 340.18 17.6063 340.1497 16.6385 339.7063 15.8703 C 339.3137 15.1895 338.6544 14.8937 338.171 14.6765 C 338.0723 14.6326 337.9747 14.5906 337.8867 14.5438 C 336.7499 13.9401 335.3816 13.2983 333.7925 13.3651 C 333.3266 13.3861 332.891 13.4852 332.5071 13.573 C 332.1282 13.659 331.7932 13.7453 331.5139 13.7151 C 329.9863 13.5579 328.7527 14.146 327.696 14.6555 C 327.4137 14.7917 327.1353 14.9274 326.855 15.0426 C 325.4144 15.6351 324.1613 16.5409 322.9492 17.4174 C 322.5947 17.6732 322.2411 17.9289 321.8837 18.1749 C 321.7069 18.2979 321.5243 18.418 321.3397 18.54 C 320.5036 19.0925 319.5543 19.7182 318.9136 20.6298 C 318.2826 21.5235 317.8031 21.7075 317.2786 21.7075 C 317.0295 21.7075 316.7365 21.6616 316.4084 21.5693 C 316.0636 21.4737 315.67 21.4234 315.2695 21.4234 C 314.7617 21.4234 313.8152 21.5093 313.1599 22.0872 C 312.2809 22.8617 311.6841 23.8915 311.1587 24.7988 L 311.0248 25.0296 C 310.2728 26.3201 309.5735 27.6525 308.9474 28.9902 C 308.6144 29.7018 308.3536 30.4276 308.1016 31.1279 C 307.9825 31.4637 307.8613 31.7985 307.7334 32.1304 C 307.5517 32.5994 307.3681 33.066 307.1855 33.533 C 306.7909 34.5326 306.3836 35.5648 306.0125 36.6005 C 305.8738 36.9914 305.8503 37.3652 305.8308 37.6649 C 305.824 37.7947 305.8113 37.99 305.7888 38.0519 C 305.697 38.2935 305.5632 38.5478 305.4216 38.8177 C 305.2751 39.0964 305.1305 39.377 305.0074 39.6669 C 304.8199 40.1149 304.7057 40.5308 304.6627 40.9354 L 304.6451 41.1374 C 304.6432 41.1545 304.6432 41.1701 304.6412 41.1882 C 304.5728 41.2365 304.5084 41.2843 304.4517 41.3322 C 304.3873 41.3863 304.2622 41.4625 304.1421 41.5352 C 303.6938 41.807 302.5755 42.483 302.7264 43.8881 C 302.7137 43.9159 302.7015 43.9432 302.6907 43.9701 C 302.6253 44.1258 302.5545 44.28 302.4837 44.4328 C 302.3553 44.711 302.2292 44.9877 302.1262 45.2737 C 302.0706 45.4274 302.0246 45.5782 301.9792 45.7281 C 301.9265 45.9033 301.8816 46.0541 301.8254 46.1771 C 301.5974 46.6778 301.5353 47.2108 301.4826 47.6671 L 301.4591 47.8614 C 301.3952 48.3421 301.3542 48.8326 301.3385 49.3167 C 301.3204 49.8482 301.3375 50.3641 301.3542 50.8648 C 301.3673 51.2387 301.3805 51.6145 301.3761 51.9903 C 301.3703 52.5101 301.2345 53.083 301.0904 53.6877 C 300.9874 54.1163 300.8824 54.558 300.8121 55.0221 C 300.6851 55.8664 300.5191 56.761 300.3442 57.7088 C 299.434 62.6313 298.302 68.7574 301.9026 73.0714 C 304.1323 75.7439 306.4383 77.0949 309.0011 77.2052 C 309.1594 77.213 309.3283 77.2198 309.4963 77.2198 C 309.8919 77.2198 310.2113 77.1827 310.5052 77.1046 C 310.5287 77.0978 310.5482 77.0929 310.5658 77.089 C 310.7045 77.2003 310.9125 77.3526 311.2016 77.458 C 311.7271 77.6503 312.318 77.743 313.0066 77.743 C 313.2673 77.743 313.5281 77.7303 313.782 77.7118 C 314.6367 77.6512 315.4971 77.7557 316.4298 77.864 C 316.8947 77.9197 317.3577 77.9724 317.8197 78.0085 C 318.1176 78.0309 318.4174 78.0475 318.7163 78.0475 C 318.8892 78.0475 319.063 78.0427 319.232 78.03 C 320.4519 77.9431 321.6698 77.8377 322.8877 77.7313 L 323.084 77.7137 C 323.4904 77.6786 323.8986 77.6512 324.3059 77.6249 C 325.3285 77.5576 326.3843 77.4883 327.4372 77.2852 C 328.909 77.0012 330.3545 76.5902 331.7522 76.192 L 332.6722 75.9323 C 334.0161 75.5565 335.364 75.1387 336.6678 74.7346 L 337.08 74.6068 C 337.4971 74.4769 337.9073 74.3257 338.3175 74.1743 L 338.7541 74.0133 C 340.8491 73.2558 342.3444 72.3285 343.4578 71.0957 C 344.121 70.3607 344.5859 68.9243 344.1805 67.8858 L 344.1805 67.8858 Z" fill="#ffffff"/>
		<path filter="url(#filter4)" d="M 543.9655 70.9015 C 543.4821 70.7628 542.6997 70.9415 542.3345 71.0445 C 541.6674 71.2314 541.0452 71.5467 540.4202 71.8453 C 538.9814 72.5335 537.5047 73.1475 536.0006 73.6814 C 535.2349 73.9528 534.4614 74.2056 533.6819 74.4369 C 533.3079 74.5482 532.923 74.637 532.5519 74.7571 C 532.295 74.8391 531.9854 75.0665 531.7188 75.0733 C 529.3728 75.1436 527.0239 75.2569 524.6788 75.208 C 523.5126 75.1837 522.3465 74.8849 521.194 74.6458 C 519.5893 74.313 518.0256 73.3876 517.13 72.308 C 515.58 70.4398 513.6149 68.5607 514.0886 65.5812 C 514.4119 63.5401 514.3054 61.4322 514.4187 59.355 C 514.4509 58.7684 514.5476 58.1793 514.6687 57.6029 C 515.0242 55.9416 515.7236 54.2793 515.6962 52.6272 C 515.6649 50.7121 516.2695 48.9688 516.4863 47.1356 C 516.8555 44.0179 517.1974 40.8934 517.6877 37.7928 C 518.1409 34.9294 518.9124 32.1118 519.2767 29.2391 C 519.5356 27.1927 520.0396 25.18 519.8403 23.0379 C 519.6537 21.0178 520.859 19.3136 521.9324 17.6083 C 522.5086 16.6937 523.4091 16.1861 524.4239 15.8869 C 524.9093 15.7429 525.4055 15.64 525.8948 15.5101 C 526.4183 15.3706 526.8646 15.2363 527.394 15.4721 C 528.0045 15.7454 528.5807 16.2129 529.154 16.5629 C 529.7723 16.9416 530.3915 17.3184 531.0068 17.7025 C 531.4941 18.008 531.9815 18.316 532.4611 18.6337 C 532.7971 18.8548 533.1848 19.1095 533.2551 19.5405 C 533.3948 20.3902 532.8058 21.1945 532.5402 21.97 C 532.2443 22.8339 532.0382 23.7246 531.8751 24.6212 C 531.5518 26.3972 531.4004 28.2015 531.041 29.9727 C 530.4979 32.6575 530.5917 35.4033 529.8817 38.0598 C 529.5056 39.4663 529.5759 40.9866 529.3708 42.4459 C 529.1589 43.9442 528.78 45.4216 528.6129 46.9238 C 528.3405 49.3865 528.106 51.8585 527.9937 54.3344 C 527.9146 56.1007 527.94 57.8928 528.148 59.6469 C 528.3102 61.0213 528.5592 62.5235 529.281 63.6392 C 529.7215 64.3186 531.1143 64.6026 532.1046 64.6646 C 535.3482 64.8661 538.4472 63.9467 541.5385 63.1121 C 542.0561 62.9725 542.4849 62.5035 543.0015 62.3698 C 544.3611 62.0198 544.45 60.928 544.5798 59.8616 C 544.8084 57.9997 544.8358 56.0973 545.2499 54.2812 C 545.6454 52.5369 546.5167 50.9049 547.0021 49.1737 C 547.3595 47.9023 547.3928 46.5426 547.6379 45.2366 C 547.9485 43.5884 548.3265 41.952 548.679 40.3116 C 548.9467 39.0632 549.2504 37.8201 549.4828 36.5643 C 549.7808 34.9445 549.8687 33.267 550.3414 31.7038 C 550.6949 30.5334 551.1208 29.119 551.0865 28.1805 C 551.0377 26.8233 551.6755 25.9682 552.0271 24.912 C 552.6259 23.1087 553.0527 21.1774 554.0303 19.5952 C 554.8097 18.3321 555.8245 17.0836 557.3091 16.2808 C 558.3639 15.7112 559.1003 14.5355 560.4433 14.3798 C 562.0929 14.187 563.765 13.78 565.3941 13.903 C 566.5671 13.9908 567.7274 14.187 568.8799 14.414 C 569.8957 14.6136 570.9515 14.7634 571.9018 15.1534 C 573.696 15.8889 575.5527 16.433 577.3273 17.2325 C 578.2122 17.6312 579.0825 18.0612 579.9331 18.5288 C 580.3589 18.7625 580.778 19.0056 581.1921 19.2584 C 581.3405 19.3506 582.3651 19.8694 582.3651 20.0183 C 584.0528 21.1706 585.8128 22.216 587.5113 23.3546 C 588.2272 23.8334 588.8816 24.4059 589.5369 24.9677 C 590.4394 25.7417 591.4151 26.4592 592.1828 27.3518 C 593.6566 29.0629 594.9224 30.9551 596.4275 32.6355 C 598.4385 34.8791 599.2716 37.7049 600.598 40.2946 C 601.3295 41.7202 601.9692 43.2053 602.3433 44.7686 C 602.7213 46.3499 602.7398 47.8692 602.5005 49.4617 C 602.4634 49.7096 602.3638 49.8653 602.269 50.1001 C 601.9897 50.7867 601.7075 51.4725 601.4145 52.1543 C 600.8343 53.4989 600.217 54.8269 599.5471 56.1285 C 599.1388 56.9192 598.7364 57.7206 598.2695 58.4775 C 597.9072 59.0642 597.454 59.6938 596.949 60.1696 C 596.656 60.4454 596.2888 60.6416 596.0173 60.9271 C 595.4127 61.5669 594.855 62.2394 594.2123 62.8461 C 592.9475 64.0409 591.5186 65.0604 589.9393 65.7988 C 588.3786 66.5285 587.0063 67.6481 585.5002 68.5056 C 584.3273 69.1723 583.0742 69.6969 581.8641 70.2987 C 580.5397 70.9576 579.2612 71.7253 577.8938 72.2719 C 576.4971 72.8293 575.0077 73.1504 573.5739 73.6209 C 572.0034 74.1363 570.4719 74.7805 568.8839 75.2246 C 567.3426 75.6551 565.7477 75.8904 564.1811 76.232 C 562.2863 76.6459 560.4139 77.2501 558.4977 77.4521 C 557.0034 77.6112 555.4514 77.5185 553.9337 77.1564 C 552.9003 76.9094 551.7742 76.7269 550.7418 76.8762 C 549.2103 77.0988 548.0266 76.4165 546.793 75.8132 C 545.6142 75.2364 544.8983 74.2027 544.5837 72.9503 C 544.5095 72.6555 544.4568 72.3549 544.4138 72.0542 C 544.3806 71.821 544.4304 71.3485 544.3181 71.1494 C 544.2468 71.0254 544.1218 70.9464 543.9655 70.9015 L 543.9655 70.9015 ZM 566.113 24.0921 C 565.9528 24.2214 565.8102 24.383 565.7301 24.5479 C 565.5641 24.893 565.6842 25.2878 565.5729 25.6456 C 565.0366 27.3548 564.186 28.9751 563.7494 30.7023 C 562.97 33.7936 562.4543 36.9504 561.7344 40.0578 C 560.9863 43.2873 559.9051 46.4557 559.3767 49.7174 C 558.8532 52.9478 558.7546 56.2574 558.6266 59.539 C 558.5475 61.5508 558.6804 63.34 559.3552 65.241 C 559.8953 66.7676 561.2119 67.0004 562.7004 67.1952 C 564.0834 67.3743 565.4918 67.3421 566.8591 67.0575 C 568.7021 66.6715 570.5461 66.2849 572.3882 65.893 C 572.9459 65.7749 573.529 65.71 574.0505 65.4992 C 577.2492 64.2019 580.4312 62.8925 583.335 60.9603 C 586.348 58.9543 589.0056 56.8103 589.8632 52.9908 C 590.58 49.7945 590.5136 46.6739 589.2097 43.7402 C 588.0016 41.0247 586.3851 38.4878 584.9055 35.8967 C 584.4034 35.0172 583.8946 34.0797 583.1699 33.4008 C 581.0798 31.4427 578.9369 29.5329 576.7012 27.7447 C 575.4726 26.7632 574.0906 25.8906 572.6441 25.2878 C 571.1165 24.6499 569.465 24.4123 567.871 24.0052 C 567.3885 23.8822 566.8572 23.6704 566.3796 23.9164 C 566.2917 23.9623 566.1999 24.0223 566.113 24.0921 L 566.113 24.0921 Z" fill="#ffffff"/>
		<path filter="url(#filter5)" d="M 16.8183 56.5385 C 16.7192 57.1271 16.7783 58.2603 16.7646 58.5244 C 16.7143 59.4658 16.6425 60.4127 16.6425 61.3561 C 16.5942 64.0169 16.2225 66.9604 16.5092 69.5945 C 16.7524 71.819 17.1436 73.4286 15.1941 75.1075 C 14.4293 75.7664 13.9659 76.7708 13.3428 77.5995 C 12.682 78.478 12.1566 79.6406 11.2707 80.112 C 10.4278 80.5591 9.0546 80.6049 8.1712 80.2292 C 7.049 79.7509 6.1851 78.6684 5.4911 78.0827 C 5.5952 75.985 5.2602 74.0182 5.876 72.4154 C 6.7013 70.2679 5.9521 68.1391 6.525 66.0038 C 7.0509 64.0409 6.6812 61.848 6.8092 59.7631 C 6.943 57.5898 7.2453 55.4277 7.3884 53.2558 C 7.5212 51.2558 7.5144 49.2469 7.6174 47.2444 C 7.6985 45.6763 7.7771 44.1009 7.9954 42.5479 C 8.1365 41.5415 8.3363 40.5449 8.5423 39.5503 C 8.7264 38.6615 8.8944 37.5634 8.7103 36.6766 C 8.4842 35.5902 8.5892 34.6234 8.7782 33.533 C 8.9223 32.7024 8.8842 31.858 8.9252 31.0181 C 8.9433 30.6403 8.9325 30.1874 9.0712 29.8297 C 9.6714 28.2864 9.1435 26.5861 9.4883 24.9979 C 9.6733 24.1433 9.7974 23.2766 9.9068 22.4103 C 10.0137 21.5576 10.2125 20.6489 10.2047 19.7904 C 10.1895 18.1759 10.9767 16.4911 11.4045 14.9377 C 11.6116 14.1841 11.7386 13.3964 12.0379 12.6819 C 12.3441 11.9488 12.8691 11.3114 13.1977 10.5857 C 13.5498 9.8072 13.5239 8.6696 14.3922 8.2166 C 14.9724 7.915 15.8074 7.9399 16.4462 7.8799 C 17.2066 7.8081 18.1207 7.6861 18.8498 7.9321 C 19.618 8.1927 20.3559 8.5534 21.0611 8.9526 C 22.2932 9.6491 22.2053 10.8336 22.5144 11.8219 C 23.1263 13.7824 22.7493 15.8723 23.0271 17.8865 C 23.2713 19.6557 23.6351 21.4078 23.8573 23.1789 C 24.0624 24.8159 24.1025 26.4733 24.3032 28.1117 C 24.4556 29.3499 25.0045 30.4744 24.8956 31.7267 C 24.7906 32.9361 25.1773 34.3286 25.7165 35.4062 C 26.2404 36.4506 26.6209 37.7723 26.8846 38.9217 C 27.2479 40.5059 27.475 42.1208 27.8007 43.7144 C 28.2178 45.7525 28.2671 47.8462 29.2272 49.8023 C 29.819 51.0088 29.799 52.5013 30.1843 53.8264 C 30.5042 54.9269 30.7811 56.0885 31.3734 57.068 C 33.4504 56.0294 34.3216 53.0181 34.7528 50.921 C 34.9979 49.7247 35.5449 48.6139 35.8091 47.4206 C 35.9478 46.7891 36.0279 46.2322 36.251 45.6183 C 37.5471 42.0579 38.6981 38.4419 39.8614 34.8352 C 39.9932 34.4247 39.9005 33.944 40.0093 33.5218 C 40.6818 30.9244 41.3967 28.3382 42.0648 25.7398 C 42.3856 24.4923 42.621 23.2229 42.9199 21.9686 C 43.2358 20.6328 43.5748 19.3028 43.9161 17.9724 C 44.0968 17.2618 44.4411 16.5619 44.4753 15.8464 C 44.5993 13.1933 47.5015 9.4583 50.038 8.9995 C 50.7569 8.8697 51.568 9.1664 52.322 9.3323 C 53.4852 9.5871 54.6866 9.776 55.7775 10.2216 C 56.7308 10.6115 56.8997 11.6042 56.7987 12.5725 C 56.6395 14.1031 56.3484 15.6263 56.3015 17.1588 C 56.2185 19.8201 56.3616 22.4913 56.2566 25.1521 C 56.1477 27.8945 55.8254 30.6281 55.6564 33.37 C 55.5705 34.7693 55.6637 36.1807 55.5963 37.5819 C 55.4454 40.7738 55.2106 43.9613 55.0807 47.1537 C 55.0123 48.837 55.4674 50.6369 55.0094 52.1855 C 54.4644 54.0284 54.8873 55.8318 54.5503 57.621 C 54.1191 59.9149 54.8716 62.2468 54.1992 64.5929 C 53.8715 65.7368 54.4492 67.1254 54.5484 68.409 C 54.7325 70.8009 54.7745 73.208 55.0587 75.5868 C 55.3014 77.6278 56.7977 79.4717 56.5286 81.5645 C 56.4324 82.3141 55.5485 82.9847 54.9215 83.3469 C 53.6444 84.0858 52.3191 84.7612 50.9087 85.2073 C 50.1909 85.4348 49.4515 85.6007 48.7024 85.6856 C 47.6393 85.8047 46.9985 85.4572 46.3202 84.6754 C 45.7933 84.0682 45.0959 83.2004 45.0242 82.3629 C 44.8762 80.6479 44.5729 78.9466 44.3791 77.2345 C 44.2819 76.3794 44.298 75.5126 44.2321 74.6526 C 44.0699 72.4935 43.8922 70.3377 43.7149 68.181 C 43.584 66.5826 43.355 64.9853 43.3408 63.3864 C 43.333 62.4308 43.7369 61.4781 43.8082 60.5127 C 43.8902 59.398 44.131 57.6888 43.5079 56.6952 C 43.4048 56.5321 43.2368 56.3984 43.0439 56.3896 C 42.3265 56.3555 41.8509 58.4063 41.6487 58.9114 C 41.2336 59.9539 40.8034 60.9973 40.2267 61.9627 C 39.5303 63.1253 38.3241 63.974 37.3894 65.0023 C 36.6979 65.7632 36.1177 66.6246 35.4169 67.3743 C 34.2547 68.6169 33.0358 69.7872 31.2621 70.1528 C 27.7118 70.8858 25.0977 69.3611 22.4909 67.0937 C 20.1029 65.0145 19.4017 62.3297 18.5807 59.5717 C 18.3625 58.8431 18.1486 58.1095 17.8346 57.415 C 17.7144 57.1481 17.3575 56.1856 17.0034 56.1807 C 16.9126 56.1783 16.8545 56.3223 16.8183 56.5385 L 16.8183 56.5385 Z" fill="#ffffff"/>
		<path filter="url(#filter6)" d="M 389.9453 49.305 C 390.4356 47.5705 390.4581 45.6207 390.5812 43.8944 C 390.6964 42.2853 390.8507 40.6557 391.3283 39.1066 C 391.8225 37.5082 392.8637 36.3667 393.8746 35.0587 C 394.4742 34.2856 395.2654 33.6502 395.7957 32.8395 C 396.3104 32.0572 396.9717 32.1489 397.6436 32.2739 C 398.2384 32.3837 398.8489 32.5247 399.4534 32.5535 C 399.8959 32.5745 400.3491 32.3866 400.7739 32.5096 C 401.9576 32.8537 403.2752 33.9762 404.2206 34.7395 C 404.5205 34.9816 404.6113 35.6244 404.6035 36.0802 C 404.5566 38.6669 404.3007 41.2604 404.417 43.8373 C 404.4912 45.4909 405.1729 47.1068 405.423 48.7633 C 405.8166 51.3768 405.9338 54.0387 406.4407 56.6254 C 406.7835 58.3716 407.6 60.0251 408.1987 61.7202 C 408.2915 61.9832 408.311 62.2819 408.4468 62.5167 C 408.8023 63.1326 409.2916 63.6724 409.9059 62.8515 C 410.5652 61.973 411.1288 61.0154 411.6542 60.05 C 412.3663 58.7425 413.087 57.4272 413.6457 56.0509 C 414.1624 54.7732 414.4691 53.411 414.8695 52.0855 C 415.0052 51.635 415.1352 51.1821 415.2787 50.734 C 415.7271 49.3241 416.2545 47.9346 416.6071 46.5011 C 416.8365 45.5626 416.7828 44.5582 416.9127 43.5914 C 417.1432 41.8744 417.2682 40.1252 417.7009 38.457 C 418.5819 35.0675 418.4969 31.5969 418.7928 28.1595 C 419.0742 24.8871 419.287 21.6089 419.4404 18.3272 C 419.4678 17.7283 419.4238 17.1519 419.3828 16.5629 C 419.3398 15.9225 419.5313 15.2417 419.6348 14.6058 C 419.8712 13.1577 420.1085 11.7092 420.3439 10.2601 C 420.4943 9.3436 420.6534 8.4006 421.0588 7.5563 C 421.5325 6.5709 422.3021 6.2498 423.146 5.6251 C 424.1237 4.8993 425.031 5.2795 426.1268 5.4591 C 428.3908 5.8291 429.556 7.4811 430.0052 9.1034 C 430.2914 10.1401 430.7183 11.3187 430.6323 12.4061 C 430.605 12.758 430.5034 13.0786 430.5366 13.4364 C 430.5835 13.9693 430.7358 14.496 430.7983 15.0289 C 430.8755 15.6824 431.0709 16.3193 430.9908 16.9357 C 430.7896 18.4814 430.562 20.0246 430.435 21.5796 C 430.3481 22.6621 430.312 23.7475 430.2778 24.8344 C 430.2485 25.7178 430.0297 26.7315 430.2934 27.5929 C 430.4321 28.0478 430.4985 28.4553 430.4428 28.9321 C 430.3344 29.838 429.9135 30.6804 429.8646 31.595 C 429.8265 32.2899 429.5433 32.9703 429.4944 33.6653 C 429.3851 35.2012 429.4476 36.7537 429.2698 38.2789 C 429.0422 40.2243 428.6741 42.154 428.3156 44.0814 C 428.0665 45.4147 427.8009 46.752 427.4131 48.0497 C 426.8125 50.0498 425.9979 51.9908 425.4637 54.006 C 424.9646 55.886 423.858 57.4731 423.0796 59.1974 C 421.7366 62.175 420.2394 65.1946 417.9109 67.5812 C 416.6852 68.838 415.1118 69.7555 413.718 70.8551 C 413.1349 71.3144 412.6592 71.9185 412.0518 72.3373 C 410.2517 73.5828 408.5337 75.0704 406.5461 75.8855 C 404.8428 76.5853 402.8152 76.7083 400.9175 76.0934 C 400.6118 75.9948 400.2592 75.8074 400.0912 75.5536 C 399.1321 74.1002 398.1896 72.6331 397.3086 71.1308 C 396.8847 70.41 396.4863 69.6315 396.2938 68.8277 C 395.6092 65.9623 395.0163 63.0735 394.3922 60.194 C 394.3141 59.8382 394.2926 59.2804 393.9439 59.0593 C 393.7281 58.9226 393.521 58.9846 393.3491 59.1374 C 393.0375 59.4112 392.6918 59.6611 392.3548 59.9022 C 390.0469 61.5572 388.0008 63.6143 385.2523 64.5958 C 383.8235 65.1058 382.3379 65.4704 380.9383 66.0473 C 379.1265 66.794 377.1849 66.8608 375.2969 66.3689 C 374.3525 66.1229 373.4422 65.7613 372.5544 65.3576 C 372.1813 65.1873 371.7779 64.8915 371.3921 64.7749 C 370.9018 64.626 370.3529 64.7295 369.849 64.5577 C 368.8527 64.218 368.4816 63.4186 367.9376 62.6089 C 367.3184 61.6899 366.6562 60.7968 366.1082 59.8309 C 364.9352 57.7659 364.4547 55.4321 363.9527 53.1479 C 363.5679 51.3978 363.4585 49.573 363.3852 47.7735 C 363.2787 45.1868 363.2934 42.5928 363.3022 40.0022 C 363.3051 38.9065 363.2885 37.782 363.5239 36.7239 C 363.728 35.803 363.1733 34.6346 363.3276 34.3139 C 363.9966 32.9113 362.4574 31.4354 363.7017 30.1118 C 364.024 29.7711 363.5386 28.7784 363.7036 28.1595 C 363.9527 27.2303 364.3414 26.2996 364.862 25.4909 C 365.6697 24.2336 366.6659 23.0979 367.5186 21.8656 C 367.7159 21.5776 367.5616 21.0608 367.7344 20.7372 C 368.7609 18.8172 371.9742 18.3413 373.9247 19.314 C 376.2756 20.4854 376.2805 22.4132 376.1867 24.4415 C 376.1154 25.9555 375.6857 27.4519 375.5831 28.9683 C 375.295 33.2583 375.4034 37.5156 376.9612 41.6187 C 377.3128 42.544 377.4642 43.5464 377.7015 44.5153 C 378.2719 46.8359 378.8433 49.1679 380.3474 51.103 C 381.3436 52.3856 382.5987 53.4959 383.4347 54.8674 C 384.1936 56.1109 385.0492 55.456 385.5522 55.0714 C 387.111 53.8776 388.5858 52.3993 389.4531 50.6174 C 389.6563 50.2006 389.8164 49.7599 389.9453 49.305 L 389.9453 49.305 Z" fill="#ffffff"/>
		<path filter="url(#filter7)" d="M 510.4797 67.694 C 510.7258 68.6066 510.6741 69.8233 509.6182 70.043 C 508.119 70.3548 506.612 70.632 505.105 70.8985 C 503.6751 71.1504 502.5499 71.4041 501.1201 70.9488 C 500.199 70.656 499.361 70.4178 498.4185 70.2777 C 497.4662 70.1381 496.4749 69.5935 495.5637 69.2816 C 494.7716 69.0098 493.9561 68.8009 493.1766 68.5017 C 492.0779 68.081 490.9517 67.6949 489.9321 67.1254 C 487.9465 66.018 486.124 64.6485 484.2028 63.4469 C 483.7252 63.1492 483.2232 62.8422 482.6616 62.8002 C 480.6916 62.6533 480.7238 66.1307 480.3683 67.3933 C 480.0743 68.4387 479.7657 69.5203 479.2227 70.4451 C 478.748 71.2528 477.8533 71.8044 477.2966 72.5784 C 476.3619 73.8737 474.9877 74.2544 473.5784 74.5863 C 472.5851 74.8195 471.5742 75.0831 470.5643 75.1163 C 468.188 75.1954 467.3627 74.1021 468.0298 71.8219 C 468.3873 70.6018 468.9303 69.4383 469.2956 68.2201 C 470.2391 65.0711 471.2372 61.933 472.0069 58.7401 C 472.4738 56.8045 472.4786 54.762 472.8292 52.7912 C 473.2687 50.3241 473.9026 47.8901 474.3549 45.4235 C 474.725 43.4064 474.9467 41.3614 475.2427 39.3311 C 475.3042 38.9104 475.4106 38.4966 475.4731 38.0768 C 475.813 35.7459 475.9996 33.3813 476.5172 31.0913 C 477.2029 28.0444 477.8026 24.8949 479.1045 22.1003 C 479.8722 20.4522 480.7883 18.5268 482.2192 17.3687 C 482.686 16.9909 483.0366 16.4482 483.4869 16.0343 C 484.4841 15.1158 485.619 14.3808 486.6631 13.5203 C 487.6788 12.6848 488.6877 11.8112 489.9184 11.3075 C 492.2078 10.369 494.3536 10.1469 496.6713 10.1576 C 497.8101 10.164 498.9753 9.9917 500.0789 10.185 C 500.8701 10.3226 501.5645 10.9644 502.3282 11.3231 C 504.3353 12.2616 506.4665 12.9928 508.3398 14.1451 C 509.8693 15.0865 511.2669 16.3759 512.4145 17.7645 C 513.7926 19.4317 515.0213 21.2628 515.1395 23.6006 C 515.246 25.7168 515.4305 27.7837 514.3063 29.7599 C 513.8835 30.5032 513.9431 31.5061 513.6735 32.3553 C 512.9028 34.7844 511.2894 36.7108 509.6896 38.6078 C 508.6894 39.7899 507.5154 40.8397 506.3375 41.8563 C 505.1294 42.8998 503.8812 43.9203 502.5431 44.7846 C 501.206 45.6495 499.7556 46.3523 498.3179 47.0468 C 496.5306 47.9111 494.7012 48.692 492.8934 49.5144 C 491.4948 50.1503 491.3522 51.9415 492.5067 52.9879 C 494.4356 54.7361 496.1946 56.6795 498.1988 58.3287 C 499.6199 59.498 500.7538 61.0691 502.4161 61.9046 C 503.9798 62.6904 505.4888 63.584 506.9304 64.5777 C 508.1425 65.4123 509.6163 65.6983 510.298 67.1854 C 510.3674 67.3343 510.4308 67.5085 510.4797 67.694 L 510.4797 67.694 ZM 485.0799 43.5616 C 485.2801 43.7324 485.7177 43.6333 485.9638 43.6201 C 486.4463 43.5963 486.9297 43.5562 487.4073 43.4845 C 488.2805 43.3537 489.1302 43.1096 489.935 42.7417 C 492.5193 41.5591 495.2795 40.7855 497.561 38.9646 C 499.2663 37.6029 501.1689 36.1026 501.3164 33.9659 C 501.4902 31.4481 502.171 28.8624 500.4198 26.2552 C 498.6852 23.6748 497.0228 21.5864 493.7753 21.1398 C 492.1414 20.9149 490.9127 21.7475 490.816 23.4298 C 490.7984 23.7265 490.7418 24.0404 490.6216 24.3093 C 490.1694 25.3176 489.6 26.2825 489.2357 27.3201 C 488.8987 28.2806 488.8333 29.3328 488.5344 30.3094 C 487.9142 32.3427 487.1202 34.3266 486.582 36.3779 C 486.1611 37.9778 485.8339 39.6 485.5087 41.2214 C 485.4227 41.6533 485.3358 42.0843 485.2479 42.5147 C 485.2059 42.7187 484.9568 43.1707 484.9774 43.3512 C 484.9881 43.4474 485.0252 43.5143 485.0799 43.5616 L 485.0799 43.5616 Z" fill="#ffffff"/>
		<path filter="url(#filter8)" d="M 164.1936 40.2892 C 164.1892 40.2853 164.0105 40.1374 164.1623 40.2633 C 164.0612 40.1794 165.1117 37.9041 165.2108 37.6586 C 165.5678 36.7708 165.9258 35.882 166.2827 34.9948 C 166.6465 34.0889 167.0118 33.1816 167.3771 32.2758 C 167.5637 31.8112 167.7507 31.3456 167.9377 30.8814 C 168.0608 30.5735 168.3372 30.1601 168.2351 29.8121 C 168.1218 29.4305 167.404 29.6579 167.0636 29.6842 C 166.2158 29.7482 165.3656 29.8092 164.5237 29.9312 C 161.6102 30.3539 158.6548 30.6335 155.8082 31.3392 C 152.359 32.1938 148.7384 32.165 145.3947 33.6492 C 144.4268 34.0792 143.3276 33.9352 142.3358 33.6731 C 141.9387 33.5692 141.1525 33.4632 140.8453 33.1865 C 140.5601 32.9308 140.4112 32.3636 140.3335 32.004 C 140.2305 31.532 140.1133 31.0635 139.9932 30.5925 C 139.7304 29.5481 139.7563 28.5598 140.4903 27.7061 C 141.0333 27.0761 141.1256 26.0419 141.3693 25.177 C 141.5876 24.4074 141.7473 23.6807 142.6624 23.3542 C 142.9208 23.2609 143.1195 22.6191 143.1117 22.2346 C 143.0868 21.1691 143.6196 20.3482 144.4889 19.7718 C 144.8927 19.5039 145.365 19.399 145.7942 19.1749 C 146.3612 18.8792 146.976 18.7123 147.6113 18.6474 C 149.3665 18.4673 151.1347 18.8362 152.8957 18.7703 C 154.7085 18.702 156.4992 18.3711 158.3095 18.2662 C 161.1781 18.0983 164.0295 17.6468 166.8868 17.313 C 168.2459 17.1539 169.6191 17.169 170.9811 17.0397 C 171.6824 16.9738 172.3817 16.8708 173.0624 16.6883 C 173.4668 16.58 173.9619 16.5033 174.2198 16.1334 C 174.4278 15.8327 174.317 15.3188 174.7619 15.1997 C 175.408 15.0279 175.9461 15.9035 176.5873 15.7664 C 177.5493 15.5629 178.6584 16.1095 179.7147 16.2671 C 181.1895 16.4872 182.5329 17.17 184.1942 16.7312 C 185.6344 16.3525 187.2713 16.6873 188.8189 16.7513 C 190.3479 16.8152 191.8769 17.049 193.4001 17.0031 C 194.1824 16.9802 194.9105 17.2237 195.4247 17.8294 C 195.8593 18.3404 196.4595 19.1828 195.8828 19.8055 C 195.6118 20.0964 195.2607 20.3404 194.9584 20.5981 C 194.3562 21.112 193.7565 21.6289 193.1964 22.1877 C 192.7984 22.5845 192.6031 22.9603 192.1089 23.2639 C 191.539 23.6148 190.9549 23.9437 190.3596 24.2488 C 189.6139 24.6304 188.9727 25.157 188.2104 25.5182 C 186.7302 26.2205 185.083 26.4367 183.471 26.6144 C 182.2086 26.7535 180.8799 27.1912 179.8123 27.8618 C 179.1707 28.2659 178.8752 29.345 178.6022 30.1791 C 177.9024 32.3148 177.2212 34.4637 176.683 36.6439 C 176.118 38.9319 175.6101 41.2467 175.2937 43.5787 C 174.9577 46.0575 175.0436 48.5983 174.6388 51.061 C 174.2027 53.72 174.3878 56.3228 174.5177 58.9734 C 174.6066 60.7987 174.1465 62.6509 173.9278 64.4899 C 173.8867 64.83 173.7998 65.1649 173.7696 65.5055 C 173.5435 68.1503 169.771 71.3934 167.1329 71.106 C 166.5738 71.045 166.0517 70.5681 165.5316 70.2514 C 164.9266 69.8834 164.3264 69.5027 163.7565 69.0829 C 163.4791 68.8789 163.2184 68.6071 163.0533 68.3084 C 162.7652 67.7896 162.6553 67.1795 162.31 66.691 C 161.8652 66.0624 161.0233 65.8013 160.993 64.9525 C 160.9559 63.9003 160.867 62.8476 160.8191 61.7953 C 160.7239 59.6894 160.7132 57.5683 161.0262 55.4779 C 161.0452 55.351 161.0662 55.2251 161.0872 55.0982 C 161.3231 53.7019 161.1111 52.2216 161.4071 50.8443 C 161.934 48.4026 162.7061 46.0146 163.3453 43.5958 C 163.5016 43.0038 163.5065 42.3732 163.6461 41.7743 C 163.7502 41.3307 163.9597 40.9119 164.1936 40.2892 L 164.1936 40.2892 Z" fill="#ffffff"/>
		<path filter="url(#filter9)" d="M 469.0387 33.3827 C 468.7164 32.6779 468.3892 31.9634 467.9595 31.3197 C 467.5239 30.6672 466.8441 30.1542 466.4739 29.4768 C 465.8703 28.366 465.5334 27.1166 464.8995 26.0253 C 463.4393 23.5113 461.6539 21.1984 459.3636 19.3521 C 458.0099 18.2608 456.3486 17.5361 454.8962 16.5497 C 452.8286 15.147 450.5949 14.8742 448.1932 15.371 C 447.5515 15.5043 446.9968 15.4442 446.4215 15.8171 C 445.9156 16.1456 445.5317 16.6244 445.0512 16.9855 C 444.2298 17.6019 443.4758 18.1876 443.1974 19.2096 C 442.9386 20.1618 442.5294 21.0803 442.3526 22.053 C 442.2149 22.8178 442.5723 23.5865 442.4151 24.2868 C 442.4024 24.3439 442.3848 24.402 442.3653 24.4581 C 441.6748 26.364 440.2957 28.0951 439.0748 29.7057 C 436.9007 32.5711 435.2062 35.6829 433.8495 38.9631 C 433.1776 40.5893 432.8025 42.3268 432.2302 43.993 C 431.3306 46.6095 430.2866 49.1815 430.5093 52.0293 C 430.6655 54.0191 431.0035 56.0475 430.7632 58.0002 C 430.5151 60.0237 431.4313 61.379 432.5466 62.7953 C 432.7361 63.035 432.7791 63.3859 432.9705 63.6236 C 433.8408 64.7002 434.5801 65.9584 435.6701 66.7652 C 436.9407 67.7037 438.5035 68.2903 439.9841 68.9341 C 441.0262 69.387 442.1162 69.8277 443.2297 70.0049 C 444.4476 70.1977 445.7515 69.9058 446.9567 70.1318 C 450.6389 70.8224 453.9323 69.5832 457.2598 68.4207 C 464.252 65.9775 468.2525 59.4356 469.7136 52.6101 C 470.9843 46.6734 471.5732 38.9333 469.0387 33.3827 L 469.0387 33.3827 ZM 458.7913 55.9836 C 458.6292 56.3023 458.4485 56.6141 458.259 56.9196 C 458.173 57.131 458.0607 57.3286 457.9103 57.5043 C 457.88 57.5395 457.84 57.5644 457.8068 57.5985 C 456.8428 58.9421 455.5936 60.0876 454.0651 60.7611 C 449.838 62.6231 445.0248 59.3887 443.7698 55.3096 C 442.4737 51.0996 442.2764 46.6988 444.1546 42.3756 C 445.4136 39.478 446.0611 36.3955 447.2438 33.4696 C 447.6423 32.4822 448.2059 31.5506 448.788 30.633 C 449.0644 30.1991 449.4111 29.7706 449.6475 29.3216 C 449.8018 29.0288 449.8214 28.7062 449.9815 28.4119 C 450.1212 28.1542 450.4269 27.9375 450.7609 27.9585 C 451.0071 27.9741 451.2063 28.1073 451.3733 28.2659 C 451.4348 28.325 451.4935 28.387 451.5472 28.449 C 452.7495 29.8204 453.3375 31.2826 453.8522 32.9049 C 454.3571 34.4984 455.3787 36.0646 456.1445 37.5868 C 457.7208 40.7235 459.7572 44.1048 460.6323 47.506 C 461.3219 50.1879 460.0463 53.5096 458.7913 55.9836 L 458.7913 55.9836 Z" fill="#ffffff"/>
	</g>
</svg>