<?xml version="1.0" encoding="utf-8"?>
<!-- Generator: Adobe Illustrator 18.0.0, SVG Export Plug-In . SVG Version: 6.00 Build 0)  -->
<!DOCTYPE svg PUBLIC "-//W3C//DTD SVG 1.1//EN" "http://www.w3.org/Graphics/SVG/1.1/DTD/svg11.dtd">
<svg version="1.1" id="Layer_1" xmlns="http://www.w3.org/2000/svg" xmlns:xlink="http://www.w3.org/1999/xlink" x="0px" y="0px"
	 viewBox="0 0 1678.2 1196.8" enable-background="new 0 0 1678.2 1196.8" xml:space="preserve">
<g>
	<g>
		<g>
			<path fill="#83BFE3" d="M1426.9,927.1c-1.7-2.9-3.4-5.7-5.7-8.5c-2.2-2.2-4.5-4.9-6.7-7.1c-2.3-2.8-4.5-4.9-6.7-7.1
				c-5-4.2-10.6-7.7-16-10.6c-6.2-3.4-12.2-6.2-18.2-8.4c-3.3-1.4-6.6-2.1-9.9-3.4c-6-2.2-13.1-3.6-20.1-5
				c-3.2-0.7-6.5-1.5-10.3-2.1c-3.8,0-7-0.8-10.8-1.4c-1.9-0.3-3.8,0-6.3-0.3c-3.8,0-7.5-0.1-11.3-0.1c-1.9-0.3-3.8-0.6-5.8-1
				c-3.8,0-8.1,0-12.4,0.7c-2.4,0.4-5,0.2-7.4,0.5c-1.3-0.4-2.5-0.2-4.4,0.1c-1.2,0.2-3,0.5-4.9,0.8c-0.6,0.1-1.8,0.3-2.4,0.4
				c-1.2,0.2-1.8,0.3-2.4,0.4c-11.6,1.8-20.7,3.2-23.2,3.6c-1.8,0.3-3,0.5-4.3,0.7c-1.8,0.3-3.7,0.6-5.5,0.9
				c-5.5,0.9-11,1.7-17.1,2.7c-2.4,0.4-4.3,0.7-6.7,1.1c-1.2,0.2-1.8,0.3-3,0.5c-1.2,0.2-2.4,0.4-4.3,0.7
				c-40.2,6.3-42.1,6.6-43.9,6.9c-3.6,1.2-6.7,1.1-9.8,1.5c-13.3,2.7-26.2,4.1-39.6,6.2c-3.7,0.6-6.7,1.1-10.4,1.6
				c-3,0.5-6.6,1.7-9.7,2.1c-6.8,0.4-12.9,1.4-19.5,3.1c-3,0.5-6.8,0.4-9.9,0.9c-1.8,0.3-3.6,1.2-4.8,1.4c-4.9,0.8-9.9,0.9-14.7,1.7
				c-3.6,1.2-6.7,1.1-10.4,1.6c-6,1.6-12.7,2.6-19.5,3.1c-3,0.5-6,1.6-9.7,2.1c-9.9,0.9-19.6,2.4-29.3,4.6
				c-6.7,1.1-13.5,1.5-20.2,2.5c-3,0.5-6.7,1.1-9.8,1.5c-1.1,0.8-2.3,1-4.1,1.9c-1.2,0.2-3.1-0.1-5,0.2c-3.1-0.1-6.2,0.3-9.1,1.4
				c-3.7,0.6-6.8,0.4-9.9,0.9c-6.7,1.1-13.4,2.1-20.1,3.2c-3,0.5-6.6,1.7-9.7,2.1c-3,0.5-6.2,0.3-9.9,0.9
				c-9.7,2.1-20.1,3.2-29.9,4.7c-3.6,1.2-6.7,1.1-9.8,1.5c-6.7,1.1-12.7,2.6-19.5,3.1c-6.7,1.1-13.3,2.7-20.1,3.2
				c-6.7,1.1-13.4,2.1-20.1,3.2c-3,0.5-6.6,1.7-9.7,2.1s-6.2,0.3-9.2,0.8c-3,1.1-6.6,1.7-9.8,1.5c-3.7,0.6-6.6,1.7-9.7,2.1
				c-10.5,1-20.9,2-30.5,4.8c-3,0.5-6.2,0.3-9.9,0.9c-3,0.5-6.1,1-9.8,1.5c-3,0.5-6.6,1.7-9.7,2.1c-3.1-0.1-6.2,0.3-9.1,1.4
				c-3.7,0.6-6.8,0.4-10.4,1.6c-6.7,1.1-13.5,1.5-19.6,2.4c-3.6,1.2-6.6,1.7-9.7,2.1c-3.8,0-6.8,0.4-10.5,1c-3.1,0.5-6,1.6-9.1,1.4
				c-3.7,0.6-6.7,1.1-10.4,1.6c-23.2,3.6-46.4,6.7-68.2,7.6c-3.1,0.5-6.3-0.3-9.3,0.2c-12.4,0.7-24.4,0.1-35.2-1.4
				c-11.5-1.3-21.9-4.1-31.8-7.5c-4.6-1.8-9.3-3.5-13.3-5.4c-12-5-22-12.8-31.8-19.4c-2-0.9-3.6-3.2-5.7-4.7
				c-4.2-3.1-7.2-6.4-11-10.1c-3.7-3.8-6.7-7.1-9.9-11.6c-1-2.3-3.1-3.9-4.7-6.1c-1-2.3-2.6-4.6-3.6-6.9c-1.6-2.2-2.1-5.3-3.7-7.5
				c-0.8-1.1-1-2.3-1.9-4.1c-0.2-1.2-0.5-3-1.3-4.2c-4.3-11.2-5.3-26-4.6-37.4c1-5.8,2-10.9,3.1-16.1c0.8-2.6,1.1-5.2,1.9-7.8
				c0.8-2.6,1.7-5.3,1.9-7.8c0.9-2,1.1-5.2,1.9-7.8c0.8-2.6,1.8-4.7,2-7.2c0.8-2.6,1.1-5.2,1.9-7.8c0.8-2.6,1.7-5.3,1.9-7.8
				c0.9-2,1.7-5.3,2.5-7.9c0.3-1.9,1.2-4.6,2-7.2c0.2-2.5,1.1-5.2,1.9-7.8c0.2-2.5,1.1-5.2,1.9-7.8c0.8-2.6,1.1-5.2,1.9-7.8
				c0.8-2.6,1.8-4.7,2-7.2c0.8-2.6,1.1-5.2,1.9-7.8c0.8-2.6,1.1-5.2,1.9-7.8c0.8-2.6,1.8-4.7,2.6-7.3c0.1-3.1,0.4-5.7,1.9-7.8
				c1.7-5.3,2.1-10.3,3.8-15.6c0.8-2.6,1.1-5.2,1.9-7.8c0.9-2,1.2-4.6,2-7.2c1.7-5.3,2.7-10.4,3.8-15.6c0.8-2.6,1.8-4.6,2.6-7.3
				c0.2-2.5,1.1-5.2,1.9-7.8c1.7-5.3,2.1-10.3,3.8-15.6c0.9-2,1.8-4.6,2-7.2c0.8-2.6,1.7-5.3,2.5-7.9c0.2-2.5,0.5-5.1,1.9-7.8
				c0.9-2,1.2-4.6,2-7.2c1.1-5.2,2.7-10.4,3.8-15.6c0.9-2,1.8-4.7,2.6-7.3c0.2-2.5,1.1-5.2,1.9-7.8c1.8-4.6,3.4-9.9,4.6-14.5
				c0.8-2.6,2.4-4.7,3.2-7.4c0.9-2,1.8-4.6,2.7-6.7c2.4-4.7,4.1-9.4,6.6-13.5c4.2-8.8,9.1-17.7,15.5-24.9c1.5-2.1,3.8-3.7,5.4-5.2
				c1.5-2.1,3.2-3.6,5.4-5.2c1.6-1.5,3.9-3.1,6.8-4.2c2.3-1,5.2-2.7,8.2-3.2c3.7-0.6,6.8-0.4,9.8-1.5c7-3,11.3-11.8,8-20.6
				c-2.7-5.2-6.2-7.8-11.5-9.4c-2.6-0.8-5.1-0.5-8.7,0.1c-8.5,1.3-16.4,3.2-21.5,6.5c-2.2,1.6-5.1,3.3-6.8,4.2
				c-1.1,0.8-2.2,1.6-3.4,2.4c-1.5,2.1-3.9,3.1-6.1,4.7c-3.2,3.6-6.4,7.2-10.2,11c-3.2,3.6-5.7,7.8-8.7,12c-1.5,2.1-2.5,4.1-3.4,6.2
				c-2.4,4.7-5.6,8.4-7.3,13c-1.5,2.1-2.4,4.7-3.3,6.8c-2.5,4.1-4.2,9.4-5.9,14c-2.5,4.1-4.1,9.4-5.9,14c-1.7,5.3-3.4,9.9-4.5,15.1
				c-2.2,9.7-5.7,19.6-8.4,30.1c-0.8,2.6-1.1,5.2-2,7.2c-0.8,2.6-1,5.8-1.9,7.8c-1.7,5.3-2.7,10.4-4.4,15.7c-1.8,4.7-2.2,9.7-3.9,15
				c-0.8,2.6-1.1,5.2-1.9,7.8c-0.8,2.6-1.7,5.3-1.9,7.8c-1.8,4.7-2.8,9.8-4.5,15.1c-1.1,5.2-2.7,10.4-3.9,15
				c-1.9,7.8-3.8,15.6-5.7,23.4c-1.7,5.3-2.8,9.8-4.5,15.1c-0.2,2.5-1.1,5.2-1.9,7.8c-3.3,10.5-4.3,20.7-8.4,30.1
				c-1.8,4.6-3.4,9.9-5.2,14.6c-3.4,9.9-7,19.2-11.1,28.6c-1.8,4.7-4.2,8.8-6,13.4c-0.8,2.6-2.4,4.7-3.3,6.8
				c-1.5,2.1-2.5,4.1-3.3,6.8c-4.2,8.8-9.8,17.2-14.7,26c-0.9,2-2.5,4.1-4.1,5.6c-1.5,2.1-2.5,4.1-4,6.3c-1.5,2.1-3.2,3.6-4.7,5.7
				c-1.5,2.1-3.1,4.2-4.7,5.7c-6.3,7.9-12,15-20.3,21.9c-1.6,1.5-3.2,3.6-5.4,5.2c-1.6,1.5-4,2.5-6.2,4.1c-1.5,2.1-3.9,3.1-6.1,4.7
				c-4.6,2.6-9.2,5.2-14.5,7.3c-2.9,1.7-5.9,2.2-9,2.7c-6.5,2.3-12.1,2.5-18.4,2.3c-3.8,0-6.2,0.3-8.8-0.5c-2-0.9-4.6-1.8-6.8-3.3
				c-4.1-2.5-8.9-4.9-12-8.7c-3.1-3.9-5.2-9.2-7.4-15.1c-2.1-5.3-3.7-11.9-3.5-18.2c-0.5-3-1.1-6.7-0.9-9.9c0.2-2.5,0.4-5.7,0.5-8.8
				c0.2-2.5,0.5-5.1,1.2-8.3c0.2-2.5,0.4-5.7,0.6-8.2c0.8-2.6,1.8-4.6,1.9-7.8c0.8-2.6,1.1-5.2,1.9-7.8c0.9-2,1.8-4.6,2.6-7.3
				c1.2-4.6,16.9-43.9,17.3-45.2c1-1.4,1.4-2.7,2.5-4.1c1.4-2.7,2.3-5.4,3.7-8.1c2.1-2.8,3-4.8,4.4-7.6c2.1-2.8,2.9-5.4,4.3-8.2
				c1.4-2.7,3.6-4.9,4.3-8.2c0.8-2.6,3-4.8,4.4-7.6c1.4-2.7,2.9-5.5,4.3-8.2c1.4-2.7,3-4.8,4.4-7.6c5.9-10.3,12.4-20.7,18.3-31
				c1.4-2.7,2.9-5.5,4.3-8.2c1.5-2.1,3.6-4.9,4.4-7.6c1.4-2.7,3.6-4.9,5-7.7c1.4-3.3,2.9-5.5,4.3-8.2c3-4.8,5.9-10.3,8.8-15.7
				c3-4.8,5.9-10.3,8.8-15.7c1.5-2.1,2.9-5.4,4.3-8.2c0.4-1.3,1.5-2.1,2-3.4c1-1.4,1.4-2.7,1.8-4.6c1.4-2.7,3-4.8,4.3-8.2
				c0.8-2.6,2.9-5.5,4.3-8.2c1.5-2.1,2.3-5.4,3.1-8c1.4-3.3,2.9-5.5,4.2-8.8c0.8-2.6,1.7-5.3,3-8.6c1.4-2.7,1.6-5.9,3-8.6
				c2.8-6.1,4.4-11.9,6-17.8c1.4-3.3,1.5-6.5,2.2-9.7c0.3-1.9,0.7-3.2,1.1-5.2c0.4-1.3,0.1-3.1,0.5-5.1c0.9-2,2.9-1.7,5.2-2.7
				c3.6-1.2,5.8-2.8,8.1-4.4c5.6-4,10.2-11,10.1-19.1c-0.1-8.7-8.5-14.3-16-14.4c-4.4,0.1-8.5,1.3-13.3,2.7
				c-3.6,1.2-6.8,4.2-11.1,4.9c-7.3,1.1-14.8,1.1-21.6,1.5c-6.3-0.3-12.2-1.8-18.4-2.1c-1.2-0.1-2.4-0.2-3.6-0.4
				c-5.4,9.2-11.3,18-17.5,26.4c-0.5,1.1-1,2.1-1.5,3.2c4.3,0.5,8.7,1.1,13,1.6c4.5,0.5,8.9,1.1,13.5,2.3c1.9,0.3,4.4-0.1,7.5,0.1
				c1.9,0.3,3.9,0.6,6.9,0.2s6.1-1,6.9,0.2c1.6,2.2-1.5,6.5-1.6,9.6c-1.4,3.3-2.1,6.6-2.9,9.2c-0.7,3.2-2.2,6-3,8.6
				c-1.4,2.7-2.1,6.6-2.9,9.2c-2.9,5.4-5.1,11.4-8,16.9c-0.8,2.6-2.3,5.4-3.7,8.1c-0.7,3.2-2.9,5.5-3.7,8.1
				c-1.4,3.3-2.8,6.1-4.2,8.8s-2.3,5.4-3.7,8.1c-1,1.4-2.2,2.2-2.6,3.5c-1,1.4-1.4,2.7-2.5,4.1c-0.8,2.6-3,4.8-4.4,7.6
				c-2.8,6.1-5.8,10.9-8.7,16.4c-1.9,4-4.4,7.6-6.9,11.7c-1.1,0.8-1.4,2.7-1.9,4c-1.4,2.7-3.6,4.9-5,7.7
				c-4.4,7.6-8.7,16.4-13.8,23.4c-1.4,2.7-2.9,5.5-4.3,8.2c-1.4,2.7-3,4.8-4.4,7.6c-1.5,2.1-3.6,4.9-4.4,7.6c-1,1.4-1.4,3.3-2.5,4.1
				c-1.9,4-4.4,7.6-6.9,11.7c-0.4,1.3-0.8,2.6-1.9,4c-1,1.4-1.4,2.7-2.5,4.1c-2.9,5.5-5.2,10.8-8.1,16.3c-3,4.8-5.8,10.9-8.1,16.3
				c-1.4,2.7-2.9,5.5-3.6,8.7c-1.4,2.7-15.9,41.9-16.9,43.9c-0.4,1.3-1.4,3.3-1.2,4.6c-0.6,3.8-2.1,6.6-2.8,9.8
				c-2.6,11-4.3,20.7-4.9,32.6c-0.3,1.9,0,3.8,0.3,6.2c-0.3,1.9-0.6,3.8-0.4,5.7c-0.3,1.9,0.7,4.3,0.3,6.2c0.3,6.2,1.4,12.9,3,18.9
				c1.3,4.2,2.6,8.3,3.7,11.9c1.8,3.5,3.5,6.3,4.7,9.9c1.2,3.6,3.5,6.3,5.2,9.2c2.3,2.8,4.5,4.9,6.7,7.1c2.3,2.8,4.5,4.9,7.2,6.4
				c2.8,2.1,5.6,4.1,8.4,5.6c2.7,1.4,6,2.2,9.3,3.5c1.4,1,2.7,1.4,4.6,1.8c1.3,0.4,3.2,0.7,5.2,1.1c1.9,0.3,3.8,0.6,5.2,1.1
				c5.8,1,10.8,0.8,18.2,0.3c8.5-1.3,17.1-2.7,24.1-5.7c7.6-3.1,14.1-6,20.4-9.4c5.7-3.4,10.6-7.9,17-11.4c1.1-0.8,2.2-2.2,3.3-3
				c4.4-3.8,7.7-6.8,11.6-9.9c1-1.4,2.1-2.8,3.2-3.6c1-1.4,2.2-2.2,3.2-3.6c4.9-4.5,9.1-9.6,12.7-14.5c2.1-2.8,4.1-5.6,5.7-7.8
				c3.1-4.2,5.6-8.4,8-12.5c0.4-1.3,0.7-3.2,3.2-3.6c1.3,0.4,0.9,5.5,1.2,7.9c1.9,8.4,4.8,14.9,7.7,21.3c0.9,1.7,1.9,4.1,2.9,6.4
				c0.9,1.7,2.4,3.4,3.9,5c1,2.3,1.9,4.1,3.4,5.7c1,2.3,3,3.3,3.9,5c3,3.3,5.5,7.3,8.4,9.9c3,3.3,5.4,6.7,8.3,9.3
				c10.4,10.9,22.4,19.6,34.3,27.7c1.4,1,3.4,2,5.5,2.9c1.5,1.6,2.9,2.7,4.9,3.6c5.5,2.9,11,6.4,17,8.6c4,1.9,8,3.1,12,5
				c8,3.1,16.4,4.9,26,6.5c6.5,1.5,14.1,2.2,21.1,2.9c1.9,0.3,4.5,0.6,6.9,0.2c2.5,0.2,5.1,0.5,7.6,0.7c3-0.5,5.6-0.3,8.1,0
				c5-0.2,9.9-0.3,15.5-0.6c2.5,0.2,5-0.2,8-0.6c5.1,0.5,10.6-0.4,16.1-0.7c3-0.5,5.5-0.9,8.5-1.3c5.6-0.3,11.2-0.5,16.6-2
				c2.4-0.4,5.6-0.2,7.9-1.2c5.5-0.9,11.2-0.5,16.6-2c3-1.1,5.5-0.9,8.5-1.3c2.4-0.4,4.8-1.4,7.8-1.9c2.4-0.4,5.6-0.2,8.6-0.7
				c2.4-0.4,4.8-1.4,7.8-1.9c2.5,0.2,5.6-0.2,8.6-0.7c4.8-1.4,11.1-1.1,16.5-2.6c2.3-1,4.8-1.4,7.9-1.2c8.5-1.3,16.4-3.2,25-3.9
				c6.1-1,11.6-1.8,17.1-2.7c3-0.5,5.4-1.5,8.4-1.9c8-0.6,16.6-2,25.1-3.3c5.5-0.9,10.9-2.3,16.5-2.6c8.6-0.7,17-3.3,24.9-4.5
				c8.6-0.7,17.2-2.1,25-3.9c5.5-0.9,11.7-1.2,17.2-2.1c3-0.5,5.4-1.5,8.4-1.9c2.5,0.2,5.6-0.2,8.6-0.7c10.9-2.3,22-3.4,32.2-5.7
				c3-0.5,5.6-0.2,8.6-0.7c3-0.5,5.5-0.9,8.5-1.3c2.4-0.4,5.4-1.5,7.8-1.9c6.3,0.3,11-1.7,16.6-2c3.1-0.5,5.5-0.9,8.5-1.3
				c5.4-1.5,11-1.7,16.4-3.2c2.4-0.4,5-0.2,8-0.6c2.4-0.4,5.4-1.5,7.9-1.2c3.1-0.5,5.4-1.5,8.5-1.3c3-0.5,5.4-1.5,7.8-1.9
				c3.1-0.5,5.6-0.2,8.6-0.7c8.4-1.9,17.1-2.7,25.5-4.6c5.5-0.9,11.1-1.1,16.6-2c5.4-1.5,11-1.7,16.4-3.2c3-0.5,6.2-0.3,8.6-0.7
				c8.5-1.3,17.1-2.7,25.6-4c11-1.7,22.5-4.1,33.5-5.3c5.5-0.9,11-1.7,16.4-3.2c3-0.5,5.6-0.2,8.6-0.7c2.4-0.4,5.5-0.9,7.9-1.2
				c3-1.1,5.5-0.9,8.5-1.3c2.4-0.4,4.8-1.4,7.8-1.9c2.4-0.4,5.6-0.2,8-0.6c3-0.5,6-1.6,8.5-1.3l16.5-2.6c1.8-0.3,3-0.5,4.9-0.8
				c3.7-0.6,6.7-1.1,10.4-1.6c1.8-0.3,3.7-0.6,6.1-1c0.6-0.1,1.8-0.3,2.4-0.4c1.2-0.2,2.4-0.4,3.7-0.6c3-0.5,6.7-1.1,10.4-1.6
				c4.9-0.8,9.1-1.4,14-2.2l1.8-0.3l12.2-1.9c1.2-0.2,2.4-0.4,3-0.5c2.4-0.4,4.9-0.8,7.3-1.1l0.6-0.1c1.8-0.3,3.7-0.6,5.5-0.9
				c0.6-0.1,1.2-0.2,1.8-0.3c1.2-0.2,3.1-0.5,4.3-0.7c0.6-0.1,0.6-0.1,0.6-0.1c8-0.6,16-1.3,22.9-1.1c3.8,0.6,7.6,0.7,11.4,0.7
				c3.8,0,7.6,0.7,10.8,1.4c7,0.8,14.1,2.2,21.2,3.6c3.2,0.7,6,2.2,9.2,2.9c3.3,1.4,6.7,2.7,9.3,3.5c2.7,1.4,6.1,2.8,8.8,4.2
				c2.8,2.1,5.5,2.9,8.3,5c5,4.2,10,7.8,14,13.4c2.4,3.4,3.3,5.1,6.7,7.1c2.7,1.4,6,2.2,10.3,2.1c0.6-0.1,1.2-0.2,1.8-0.3
				c6.9-3.6,11.1-8.6,11.7-16.8C1427.3,929.5,1427.1,928.3,1426.9,927.1z"/>
		</g>
		<g>
			<path fill="#83BFE3" d="M505.3,624.3c6.9,0.2,11.6,2.6,14.2,7.1c3.2,4.5,2.4,11.5,1.3,16c-1.8,4.7-2.7,10.4-4,14.4
				c-0.2,2.5-1.2,4.6-1.9,7.8c-0.3,1.9-0.6,4.5-1.4,7.1c-1.4,3.3-2.8,6.1-4.1,10c0.2,1.2-0.1,3.1,0.6,3.7c1.9,0.3,3.8-3.7,4.2-5
				c2-3.4,3.9-6.9,6.6-9.8c3.6-4.9,6.5-10.4,10.1-15.3c1.6-1.5,3.4-2.4,4.3-4.4c1.6-1.5,2.7-2.9,3.6-4.9c2.7-2.9,6-5.3,8.7-8.2
				c2.6-3.5,5.9-5.9,9.2-8.9c6-5.3,12.7-10.7,20.8-14.5c4.8-1.4,8.8-3.9,13.5-5.2c2.4-0.4,5.5-0.9,7.9-1.2c6.1-1,10.5-1,15,0.1
				c7.1,1.4,13,3,17.9,6.6c3.5,2.6,6.4,5.2,9.4,7.9c5.3,6,9.6,13.5,12.5,23.7c1.4,4.8,3.5,10.1,3.1,15.8c-0.2,2.5,0.3,5.6,0.6,8
				c0.5,7.4-0.2,14.4-0.9,22c-0.3,1.9,0.1,4.4-0.8,7c-0.5,4.5-1.1,8.9-1.7,13.4c-0.2,2.5-0.5,5.1-0.8,7c-0.5,4.5-2.4,8.5-3,13
				c-0.5,4.5-1.7,9-3,13c-0.2,2.5-0.5,4.5-1.5,6.5c-0.9,2-0.6,4.5-1.5,6.5c-1.2,4.6-1.8,8.4-3.7,12.4c-1.3,3.9-1.8,8.4-3.7,12.4
				c-1.3,3.9-2.5,7.9-3.8,11.8c-0.9,2-1.9,4-2.8,6.1c-1.3,3.9-2.6,7.3-4.5,11.3c-0.9,2-1.3,3.9-2.2,6c-0.9,2-2,3.4-2.9,5.5
				c-4.2,9.4-9,18.3-14.5,27.3c-1,1.4-2,3.4-3,4.8c-0.5,0.7-1.6,1.5-2.2,2.2c-0.5,0.7-2.2,1.6-1.4,2.7c0.8,1.1,4.9-0.8,6-1.6
				c1.7-0.9,3.5-1.8,5.2-2.7c4.1-1.9,7.5-3.7,11.6-5.6c3.5-1.8,6.9-3.6,10.3-6c9.2-5.2,16.5-10.1,23.6-16.8c1.1-0.8,2.9-1.7,4.5-3.2
				c1-1.4,2.7-2.9,3.7-4.3c1-1.4,2.8-2.3,3.8-3.7c2.8-2.3,4.1-5.6,6.8-8.6c1-1.4,2.1-2.8,3.1-4.2c0.9-2,2.6-3.5,3-4.8
				c1-1.4,1.4-3.3,2.3-5.4c2.4-4.7,5.3-10.2,6.9-15.5c1.3-3.9,1.4-7.1,2.5-11.6c0.6-3.9,1.2-8.3,3.3-11.1c2.2-2.2,6-5.3,10.3-6
				c9.8-1.5,15.1,4.5,18.8,12.1c0.2,1.2,0.4,2.4,0.6,3.7c-0.1,3.1-1.5,6.5-2.3,9.1c-0.7,3.2-0.8,7-2.2,9.7
				c-1.2,4.6-2.3,9.1-4.1,13.8c-0.4,1.3-1.5,2.1-2,3.4c-1,1.4-1.4,3.3-1.8,4.6c-1.9,4-3.7,8.1-6.2,12.2c-1.5,2.1-3,4.8-5.1,7.1
				c-0.4,1.3-1.5,2.1-2.6,3.5c-1,1.4-1.4,2.7-2.6,3.5c-4.2,5-7.9,9.4-12.3,13.2c-2.2,2.2-4.3,4.4-6.5,6.6c-2.2,2.2-5.1,3.3-7.3,5.5
				c-3.9,3.1-7.3,5.5-11.8,8.1c-1.1,0.8-2.2,1.6-3.3,3c-2.9,1.7-5.8,2.8-8.7,4.5c-2.9,1.7-5.8,2.8-8.7,4.5c-2.9,1.7-5.7,3.4-9.3,4.6
				c-3,1.1-6.4,2.9-9.3,4.6c-6.5,2.3-13.5,5.2-20.1,7.5c-3.7,0.6-7.2,1.8-10.8,2.9c-3.6,1.2-7.2,1.8-10.8,2.9
				c-3.6,1.2-7.7,2.5-11.4,3c-1.8,0.3-4.3,0.7-5.4,1.5c-1.8,0.3-2.9,1.7-4,2.5c-1.7,0.9-2.9,1.7-4.6,2.6c-1.1,0.8-2.2,1.6-4,2.5
				c-2.9,1.7-5.7,3.4-8.7,4.5c-12.8,5.8-31.2,8-44.1,5.7c-3.1-0.1-7-0.8-9.6-1.6c-1.9-0.3-3.2-0.7-4.6-1.2c-1.9-0.3-3.9-0.6-5.2-1.1
				c-7.2-2-12.2-10-10.5-19c1.3-3.9,2.7-6.7,5.5-9c6.7-4.8,17.4-4.6,27.1-6.7c4.8-1.4,9.1-1.4,14.1-1.6c1.8-0.3,4.2-1.3,6.6-1.7
				c7.2-1.8,14.6-2.3,21.2-4c3-0.5,5.5-0.9,6.6-1.7c5.2-2.7,7.6-7.4,12-11.2c2.1-2.8,4.1-5.6,6.8-8.6c1-1.4,2.1-2.8,3.1-4.2
				c1-1.4,2.1-2.8,3.1-4.2c2.1-2.8,4.1-5.6,5.5-9c2-3.4,4-6.3,5.4-9.6c3.4-6.2,7.3-13,9.5-19c1.4-3.3,3.3-6.8,4.7-10.1
				c1.4-3.3,3.3-6.8,4.1-10c0.6-3.9,2.6-7.3,4-10.6c1.4-3.3,2-7.2,3.3-10.5c1.3-3.9,2-7.2,3.3-11.1c0.4-1.3,0.7-3.2,1.7-5.3
				c0.6-3.9,1.4-7.1,2.6-11c1.3-3.9,1.9-7.8,2.5-11.6c-0.3-1.8,0.6-3.8,1-5.8c2-7.2,2.6-15.4,3.9-23.1c0.6-3.8,0.6-8.2,1.1-12.7
				c0.3-1.9,0.6-3.9,1-5.8c0.5-4.5-0.1-8.7-0.2-13.1c0.2-2.5-0.8-4.9-1.1-7.3c-0.4-2.4-0.2-5-1.1-6.7c-2.2-5.9-5-11.7-9.1-14.2
				c-3.4-2-7.3-2.6-12.2-1.8c-1.2,0.2-3,0.5-4.8,1.4c-1.7,0.9-3.6,1.2-4.7,2c-3,1.1-5.7,3.4-8,5c-5.1,3.3-9.5,7.1-13.3,10.8
				c-4.3,4.4-8.1,8.1-11.8,12.5c-4.3,4.4-7.3,9.3-11,13.6c-1.5,2.1-3.7,4.3-5.2,6.4c-1.4,2.7-3,4.8-4.4,7.6
				c-1.1,0.8-2.2,1.6-2.7,2.9c-1,1.4-1.4,2.7-2.6,3.5c-1.4,2.7-3,4.8-4.5,7c-2.3,5.4-6,9.7-8.9,15.1c-2.3,5.4-6,9.7-7.7,14.9
				c-1.4,2.7-2.9,5.5-4.4,7.6c-3.7,8.1-6.9,15.5-10.7,23.5c-0.8,2.6-2.3,5.4-3.7,8.1c-0.8,2.6-1.6,5.9-3,8.6c-0.8,2.6-1.7,5.3-3.1,8
				c-0.8,2.6-2.3,5.4-3.1,8c-0.1,3.1-0.9,6.4-1.6,9.6c-0.7,3.2-1.6,5.9-1.7,9c-0.7,3.2-1.6,5.9-2.3,9.1c-3.3,14.9-5.8,30.9-9.8,45.3
				c-0.4,1.3-0.7,3.2-1.2,4.6c-1.4,7.1-3.9,15-5.2,22.7c-0.4,1.3-0.8,2.6-1.2,4.6c-0.4,1.3-0.1,3.1-0.6,4.5
				c-0.1,3.1-0.9,6.4-1.6,9.6c-0.1,3.1-1,5.8-1.7,9c-1.4,2.7-0.9,6.4-1.7,9c-1.4,3.3-1.5,6.5-2.3,9.1c-1.7,9-4,18.1-5.7,27.1
				c-0.7,3.2-0.9,6.4-1.6,9.6c-0.8,2.6-1.6,5.9-2.3,9.1c-0.1,3.1-1,5.8-1.7,9c-1.6,5.9-3.2,11.7-4,18.1c-0.8,2.6-1.6,5.9-2.3,9.1
				c-1,5.8-2.5,11.6-4,18.1c0.2,1.2-0.1,3.1-0.6,4.5c-0.8,2.6-1.6,5.9-2.3,9.1c-0.4,1.3-0.8,2.6-1.3,3.9c-0.7,3.2-0.9,6.4-1.6,9.6
				c-0.8,2.6-1.6,5.9-2.4,8.5c-0.7,3.2-0.9,6.4-1.7,9c-0.7,3.2-0.9,6.4-2.2,9.7c-0.8,2.6-1,5.8-1.7,9c-2.3,5.4-3.2,11.7-4.7,17.6
				c-1.6,5.9-2.5,12.3-4.1,17.5c-1.6,5.9-5.3,10.2-11.7,13.1c-1.2,0.2-2.4,0.4-4.3,0.7c-7.1-1.4-11.4-5.1-15.5-11.3
				c-0.2-1.2-0.4-2.4-0.6-3.7c1.4-2.7,1-5.8,1.8-8.4c0.2-2.5,1.7-5.3,1.9-7.8c1.7-5.3,2.6-11,4.3-16.3c0.8-2.6,1.1-5.2,1.9-7.8
				c0.8-2.6,1-5.8,1.8-8.4c0.8-2.6,1.1-5.2,1.9-7.8c0.1-3.1,1.1-5.2,1.9-7.8c0.8-2.6,1-5.8,1.8-8.4c0.4-1.3,0.8-2.6,1.3-3.9
				c0.4-1.3,0.2-2.5,0.6-4.5c0.2-2.5,1.1-5.2,1.2-8.3c0.8-2.6,1.7-5.3,1.9-7.8c1-5.8,3.3-10.5,4.3-16.3c1.1-5.2,2-10.9,3.1-16.1
				c1.6-5.9,2-10.9,3.7-16.2c1.2-4.6,2.4-8.5,3.1-12.3c-0.2-1.2,0.2-2.5,0.6-4.5c0.2-2.5,1.1-5.2,1.9-7.8c0.8-2.6,1-5.8,1.2-8.3
				c0.8-2.6,1.7-5.3,1.8-8.4c0.8-2.6,1.7-5.3,2.5-7.9c0.2-2.5,1.1-5.2,1.2-8.3c0.8-2.6,1.7-5.3,1.9-7.8c0.2-2.5,1.7-5.3,1.8-8.4
				c0.2-2.5,1.1-5.2,1.9-7.8c1-5.8,1.9-11.5,3-16.7c1.7-5.3,2-10.9,3.7-16.2c0.8-2.6,1.1-5.2,1.8-8.4c0.2-2.5,1.1-5.2,1.8-8.4
				c2-10.9,4.8-21.4,6.8-32.3c1-5.8,2-10.9,3.6-16.8c3.1-16.1,6.7-32.9,10.4-49.1c0.2-2.5,1.1-5.2,1.9-7.8c0.8-2.6,1-5.8,1.2-8.3
				c0.2-2.5,1.7-5.3,1.9-7.8c1.8-8.4,3.6-16.8,5.5-24.6c2.6-11,4.1-21.9,6.7-32.9c0.8-2.6,1.1-5.2,1.9-7.8c0.7-3.2,1.6-5.9,1.8-8.4
				c0.8-2.6,1.1-5.2,1.8-8.4c0.8-2.6,1.1-5.2,1.9-7.8c0.2-2.5,1.7-5.3,1.8-8.4c0.2-2.5,1.1-5.2,1.9-7.8c1.6-5.9,1.9-11.5,3.7-16.2
				c2-3.4,5.4-5.2,7.7-6.8C501.6,624.9,503.4,624.6,505.3,624.3z"/>
		</g>
		<g>
			<path fill="#83BFE3" d="M782.5,535.9c7.7,1.3,13.9,4.7,15.8,13.1c0.9,5.5-1.3,11.5-3.5,13.7c-1.6,1.5-2.8,2.3-3.8,3.7
				c-4,2.5-6.4,7.2-7.5,11.8c-1.3,3.9-0.7,7.6-0.6,12c0.3,6.2,1.3,12.3,2.9,18.3c1.6,6,4.3,11.2,6.3,16.5c1.3,4.2,2.4,7.1,4.2,10.6
				c1.2,3.6,3,7,4.8,10.5c2.3,6.5,6.4,12.7,9.3,19.2c1.8,3.5,3.6,6.9,4.7,9.9c1.8,3.5,3.5,6.3,5.3,9.8c0.9,1.7,1.2,3.6,2,4.7
				c1.5,1.6,2.4,3.4,2.7,5.2c1.7,2.9,3.5,6.3,5.2,9.2c2.4,7.1,5.9,13.5,8.8,20.5c0.9,1.7,1.8,3.5,2.1,5.3c1.8,3.5,3,7,4.2,10.6
				c0.9,1.7,0.1,4.4,2.1,5.3c1.9,0.3,3.5-1.8,4.5-3.2c3.1-4.2,6.3-7.9,10.8-11.1c2.2-2.2,4.2-5,7-7.3c1-1.4,2.1-2.8,3.1-4.2
				c1.1-0.8,2.2-2.2,3.2-3.6c2.8-2.3,4.8-5.1,7-7.3c2.8-2.3,4.8-5.1,6.9-7.9c3.2-3.6,5.6-8.4,9.4-12.1c1-1.4,2.1-2.8,3.1-4.2
				c3.5-5.5,7.7-10.6,11.1-16.7c4.1-5.6,7.6-11.2,11-17.3c2.9-5.5,7.4-12.4,16.2-11.9c7.5,0.1,13.2,4.8,15.8,13.1
				c0.1,0.6,0.1,0.6,0.2,1.2c0,8.1-4.8,13.2-8.2,19.4c-2.1,2.8-4.1,5.6-5.6,8.4c-1,1.4-1.4,3.3-2.4,4.7c-1.1,0.8-2.8,2.3-3.2,3.6
				c-1,1.4-2.1,2.8-3,4.8c-0.4,1.3-2.2,2.2-3.2,3.6c-5.6,8.4-11.8,16.2-18.1,24.1c-2.1,2.8-4.1,5.6-6.2,8.5
				c-1.1,0.8-2.8,2.3-3.8,3.7c-1.1,0.8-2.2,2.2-3.2,3.6c-2.2,2.2-4.9,4.5-7.6,7.4c-4.2,5-8.5,9.5-13.9,14.7
				c-2.2,2.2-4.8,5.1-7.6,7.4c-2.2,1.6-4.9,4.5-7.8,6.2c-2.2,2.2-7.4,4.9-7.6,7.4c-0.3,1.9,0.6,3.7,0.9,5.5
				c0.2,5.6,0.4,10.6-0.7,15.7c-0.9,6.4-2.5,12.3-4,18.1c-0.8,2.6-2.3,5.4-3.7,8.1c-0.8,2.6-2.3,5.4-3.8,7.5c-1.4,2.7-3,4.8-4.5,7
				c-2.2,2.2-3.6,4.9-5.1,7.1c-3.7,4.3-8.1,8.1-12.5,12c-8.7,8.2-19,14.2-31.3,19.3c-6.4,2.9-13.8,3.4-21.7,5.3
				c-1.2,0.2-3,0.5-4.9,0.8c-9.5-1-18.7,0.4-27.2-2c-4-1.9-7.8-1.9-11.8-3.8c-3.9-1.3-7.3-2.6-10.7-4.6c-3.3-1.4-6.9-3.9-9.7-6
				c-3.4-2-6.9-3.9-9.8-6.6c-2.9-2.7-5.2-5.4-8.1-8.1c-2.1-1.5-3.5-2.6-4.4-4.3c-1.5-1.6-1.8-3.5-3.3-5.1c-0.2-1.2-0.5-3-0.7-4.3
				c0.7-3.2,1-5.8,1.9-7.8c0.9-2,3-4.8,5.8-6.5c2.3-1,6.6-1.7,10.2-2.8c3.7-0.6,7.2-1.8,11.5-2.4c1.8-0.3,3.7-0.6,5.4-1.5
				c4.8-1.4,9.5-3.4,14.9-4.8c3.6-1.2,6.4-2.9,9.4-4c3.7-0.6,6.5-2.3,10.1-3.5c3-1.1,6.4-2.9,9.4-4c3-1.1,5.8-2.8,8.8-3.9
				c3.5-1.8,6.3-3.5,8.7-4.5c5.7-3.4,11.5-6.2,17.2-9.6c2.2-1.6,5.1-3.3,8.1-4.4c5.1-3.3,9.5-7.1,15.2-10.5c2.3-1,6.9-3.6,7.3-5.5
				c0.2-2.5-2.3-6.5-2.7-9.6c-1.9-4.1-3.8-8.2-5.7-12.2c-1.4-4.8-3.3-8.9-5.1-12.3c-2.7-5.2-4.8-10.5-7.5-15.7
				c-4.4-8.1-8.1-15.6-11.7-23.1c-3.3-5.1-5.4-10.4-8.6-14.9c-1.1-3-2.2-5.9-3.3-8.9c-3.8-8.2-7.9-14.4-10.7-24.6
				c-0.9-1.7-1.2-7.9-4.3-7.4c-1.2,0.2-1.3,3.9-1.1,5.2c-0.5,5.1-2,7.2-2.6,11c-0.3,1.9-0.6,3.8-1,5.8c-0.3,1.9-1.4,3.3-1.7,5.3
				c-0.3,1.9-0.6,3.9-1,5.8c-1.4,7.1-3.5,13.7-5.5,20.9c-1.3,3.9-2,7.2-3.3,10.5c-2,7.2-4,14.4-6.1,20.9c-1.4,3.3-2.7,6.7-3.3,10.5
				c-0.7,3.2-2,7.2-2.7,10.4c-1.4,3.3-2.7,6.7-4.1,10c-1.4,7.1-4.1,13.8-6.8,20.4c-1.4,3.3-2.7,6.7-3.4,9.9c-1.4,3.3-2.7,6.7-4.1,10
				c-1.4,3.3-2.1,6.6-3.4,9.9c-2.9,5.5-9.6,10.3-17.9,9.7c-3.1-0.1-6.5-1.5-8.8-4.2c-1.6-2.2-4.1-6.2-4.1-10c0.2-2.5,1-5.8,2.4-8.5
				c2.3-5.4,3.9-11.2,6.2-16c1.4-2.7,2.3-5.4,3.1-8c1.7-5.3,4.6-10.7,5.5-16.5c1.7-5.3,3.9-11.2,6.1-16.6c1.7-5.3,3.3-11.1,4.9-16.4
				c0.8-2.6,2.3-5.4,3.1-8c0.7-3.2,0.9-6.4,1.7-9c0.8-2.6,2.3-5.4,3.1-8c0.7-3.2,1-5.8,2.3-9.1c0.8-2.6,1-5.8,2.4-8.5
				c0.8-2.6,1-5.8,2.4-8.5c0.4-1.3,0.8-2.6,1.3-3.9c0.3-1.9,0.1-3.1,0.5-4.5c0.3-1.9,0.8-2.6,1.3-3.9c0.9-2,0.7-3.2,1.2-4.6
				c0.7-3.2,1.6-5.9,2.3-9.1c0.8-2.6,1.6-5.9,2.4-8.5c1.7-5.3,2.5-11.6,4.2-16.9c0.7-3.2,1.6-5.9,2.3-9.1c0.1-3.1,1.6-5.9,1.7-9
				c0.8-2.6,1-5.8,2.4-8.5c0.8-2.6,1.6-5.9,2.4-8.5c0.8-2.6,1.7-5.3,3.1-8c0.8-2.6,2.3-5.4,3.2-7.4c3.8-7.5,8.2-15.6,14.2-21
				c2.2-2.2,4.3-4.4,6.6-5.4c1.1-0.8,3-1.1,4.1-1.9C780.1,536.3,781.3,536.1,782.5,535.9z M811.3,811.2c-1.7,0.9-3.5,1.8-5.2,2.7
				c-1.1,0.8-2.2,2.2-3.3,3c-1.7,0.9-4.2,1.3-5.9,2.2c-1.7,0.9-3.4,2.4-5.1,3.3c-6.8,4.2-14.4,7.9-22,10.9c-2.3,1-4.2,1.3-6.5,2.3
				c-1.7,0.9-3.4,2.4-5.2,2.7c-1.7,0.9-3.7,0.6-4.8,1.4c-1.8,0.3-3,1.1-4.7,2c-1.7,0.9-3.6,1.2-5.4,1.5c-3.6,1.2-7.1,2.4-10.7,3.5
				c-1.8,0.3-4.3,0.7-4.1,1.9c0.4,2.4,2.8,2.1,4.7,2.4c2.6,0.8,4.7,1.8,7.2,2c2.6,0.8,5.2,1.1,8.3,1.2c5.2,1.1,11.5,1.3,18.2,0.3
				c2.4-0.4,6-1.6,9-2.7c7.7-2.5,13.5-5.2,18.6-9.2c1.1-0.8,2.9-1.7,4-2.5c2.2-1.6,3.8-3.7,5.9-5.9c4.3-4.4,8.7-8.2,11.7-13.1
				c0.4-1.3,0.8-2.6,1.9-4c0.4-1.3,1.5-2.1,2.6-3.5c0.4-1.3,0.2-2.5,0.6-3.9c1-1.4,3.2-3.6,2.3-5.4c-0.2-1.2-1.4-1-2-0.9
				c-2.3,1-3.3,3-4.9,4.5C814.7,808.8,812.9,809.7,811.3,811.2z"/>
		</g>
		<g>
			<path fill="#83BFE3" d="M1040.5,364.2c6.3,0.3,11.5,1.3,15.7,4.4c2,0.9,4.7,1.8,6.3,4c0.8,1.1,1,2.3,1.8,3.5
				c0.7,0.5,2.1,1.5,2.9,2.7c1.8,3.5,2.6,8.3,4.5,13c0.2,1.2,0.4,2.4,0.7,4.3c-0.2,6.9,0.3,13.7-0.6,20.1
				c-0.9,6.4-2.4,12.9-3.3,18.6c-0.7,3.2-2.2,6-2.9,9.2c-0.8,2.6-2.3,5.4-3.1,8c-2.2,6-3.9,11.2-6.8,16.7c-0.4,1.3-1.4,2.7-1.9,4
				c-2.7,6.7-6.1,12.8-9.5,19c-1.4,2.7-2.9,5.4-4.4,7.6c-4.4,7.6-9,14.5-14.1,21.6c-1,1.4-1.4,2.7-2.6,3.5c-1.1,0.8-2.8,2.3-2.6,3.5
				c0.9,1.7,4.4-0.1,5.6-0.2c4.8-1.4,8.5-1.3,13.3-2.7c7.2-1.8,14-2.2,18.4,1.5c3.6,3.2,9.1,10.4,6.5,17.7c-1.4,2.7-3.4,6.2-5.7,7.8
				c-3.3,3-9.5,3.4-15.6,4.3c-5.5,0.9-10.9,2.3-16.5,2.6c-5.5,0.9-11,1.7-16.5,2.6c-2.4,0.4-5.4,1.5-8.5,1.3
				c-6.3-0.3-8.4,1.9-11.4,6.8c-2.6,3.5-5.8,7.1-8.9,10.8c-2.2,2.2-4.3,4.4-5.1,7.1c-1.4,3.3-1.9,7.8-3.2,11.7
				c-1.3,3.9-2.5,7.9-3.2,11.7c-0.3,1.9-1.3,3.9-1.6,5.9c-0.9,2-1.2,4.6-1.5,6.5c-0.3,1.9-1.3,3.9-1.6,5.9
				c-0.6,3.9-1.9,7.8-3.2,11.7c-0.3,1.9-1.3,3.9-1.6,5.9c-0.5,4.5-1.8,8.4-2.5,12.3c-1.3,3.9-2.5,7.9-3.8,11.8
				c-0.3,1.9-0.6,3.9-1,5.8c-0.9,2-1.9,4-2.2,6c-1.2,8.3-4.4,15.7-6.2,24.1c-0.6,3.9-1.9,7.8-3.2,11.7c-0.6,3.8-1.9,7.8-3.2,11.7
				c-1.6,5.9-3.2,11.7-4.6,18.2c-0.3,1.9-1.3,3.9-1.7,5.3c-0.9,2-0.6,4.5-1.5,6.5c-0.3,1.9-0.6,3.9-1,5.8c-1.2,4.6-1.1,8.9-1,13.3
				c-0.5,4.5-0.9,10.1-0.2,14.4c1,2.3,1.4,4.8,2.4,7.1c0.4,2.4,0.8,4.9,1.8,7.2c0.9,1.7,2.4,3.4,3.3,5.1c3.3,5.1,7.6,8.8,14.1,10.3
				c4.6,1.2,9.5,1,13.6-0.9c12.3-5.1,19-14.2,25-23.9c0.9-2,2-3.4,3-4.8c1-1.4,2-3.4,2.9-5.5c1.4-3.3,3.3-6.8,4.6-10.7
				c2.6-7.3,5.1-15.2,8.3-22.5c1.4-3.3,2.6-7.3,3.9-11.2c1.4-3.3,2.6-7.3,3.9-11.2c0.6-3.9,2.6-7.3,3.2-11.7
				c0.7-3.2,2.4-8.5,4.6-10.7c2-3.4,7.8-6.2,12-6.9c5-0.2,9.1,2.3,12,5c2.9,2.7,5,8,4.5,13c0.1,4.4-2.4,8.5-3.7,12.4
				c-0.9,2-1.3,3.9-2.1,6.6c-0.3,1.9-1.3,3.9-2.2,6c-0.3,1.9-1.3,3.9-2.2,6c-1.6,5.9-3.7,12.4-5.9,18.4c-1.3,3.9-3.1,8-4.4,11.9
				c-0.9,2-1.3,3.9-2.2,6c-0.9,2-1.9,4-2.2,6c-1.9,4-4.4,7.6-5.8,10.9c-0.9,2-1.9,4-3.5,5.5c-0.9,2-1.9,4-2.9,5.5
				c-0.9,2-2,3.4-3.6,4.9c-0.9,2-2,3.4-3.6,4.9c-2,3.4-5.2,6.4-7.9,9.4c-1.6,1.5-2.6,3.5-4.3,4.4c-1.6,1.5-3.4,2.4-5,3.9
				c-7.3,5.5-16,9.4-26.3,11.6c-1.2,0.2-2.4,0.4-3,0.5c-8.2-0.6-15.7-0.7-22.4-3.4c-3.3-1.4-6.6-2.1-9.4-4.1
				c-2.7-1.4-5.5-3.5-8.4-5.6c-2.2-2.2-4.5-4.9-6.7-7.1c-2.3-2.8-4-5.6-6.3-8.4c-3.5-6.3-6-14.1-8.4-21.8c-0.6-3.7-1.2-7.9-1.9-12.2
				c-0.4-2.4-0.9-5.5-0.6-8c0.1-3.1-0.3-5.6,0-8.1c0.2-2.5,0.5-5.1,0.7-7.6c0.2-2.5,0.5-5.1,1.3-7.7c0.5-4.5,1.6-9.6,2.8-14.2
				c0.6-4.5,2.3-9.1,3.5-13.7c1.2-4.6,3-8.6,3.6-13.1c0.8-2.6,1.8-4.6,2-7.2c0.9-2,1.2-4.6,2.1-6.6c1.2-4.6,1.7-9,3.5-13.7
				c0.8-2.6,1.9-4,2.1-6.6c-0.4-2.4,0.5-5.1,1.4-7.1c1.3-3.9,2.3-9.1,3.6-13.1c1.8-4.7,2.2-9.7,3.4-14.3c2.1-6.6,3.5-13.7,5.6-20.2
				c0.2-2.5,0.5-5.1,1.4-7.1c1.3-3.9,2.3-9.1,3.5-13.7c0.9-2,1.2-4.6,2-7.2c0.3-1.9,1.3-3.9,2.2-6c0.2-2.5,0.5-5.1,0.7-7.6
				c1.8-4.6,3.1-8,4.2-13.2c0.9-2,2.9-5.5,1.5-6.5c-0.8-1.1-2.5-0.2-4.4,0.1c-1.8,0.3-3.1-0.1-3.9-0.6c-5.8-1-9.9-3.4-11.5-9.4
				c-1-2.3-1.6-6-0.7-8.6c1.6-5.9,4.2-8.8,10.1-11.6c2.3-1,5.5-0.9,9.1-1.4c1.2-0.2,3-0.5,4.9-0.8c1.9,0.3,3.1,0.1,4.3-0.7
				c1.7-0.9,1.3-3.9,2.1-6.6c0.3-1.9,1.3-3.9,1.6-5.9c0.2-2.5,0.6-4.5,0.9-6.4c0.3-1.9,1.3-3.9,1.6-5.9c0.9-2,0.5-4.5,1.5-6.5
				c2.7-10.4,4.9-20.8,7.6-31.2c0.6-3.8,2.5-7.9,3.2-11.7c1.1-8.9,3.6-16.8,5.4-25.2c1.8-8.4,4.9-16.4,7.5-23.7
				c2.5-7.9,7.1-14.2,11.1-21.1c3.9-6.9,8.6-12.6,15.3-18c6.8-4.2,14.1-9.7,24.5-11.3C1038,364.6,1039.3,364.4,1040.5,364.2z
				 M1000.6,504.2c6.1-9.1,10.9-18,16.3-27.5c3.2-7.4,7.8-13.7,10.4-21.6c0.8-2.6,2.4-4.7,3.2-7.4c3.1-8,5.7-15.3,8.1-23.8
				c1.6-5.9,2-10.9,2.9-17.3c0.1-3.1,1.9-11.5-2.8-10.2c-1.2,0.2-4.1,1.9-5.8,2.8c-0.5,0.7-1.5,2.1-2.1,2.8c-1,1.4-2.9,1.7-3.3,3
				c-1.1,0.8-1.5,2.1-2.6,3.5c-0.4,1.3-1.4,2.7-2.6,3.5c-0.4,1.3-0.7,3.2-1.8,4.6c-0.4,1.3-1.5,2.1-2.6,3.5
				c-1.4,3.3-1.6,5.9-2.9,9.2c-2.5,4.1-3.5,9.3-4.7,13.9c-0.4,1.3-0.7,3.2-1.2,4.6c-0.3,1.9-0.8,2.6-1.2,4.6c-0.9,2-1.2,4.6-2.1,6.6
				c-1.2,4.6-1.7,9-2.9,13.6c-1.4,7.1-3.5,13.7-5,20.1c-0.9,2-1.2,4.6-2.1,6.6c-0.3,1.9-0.5,4.5-1.5,6.5c-0.3,1.9-1.9,4-2.9,5.5
				c-0.3,1.9-1.2,4.6,0.3,6.2c1.8-0.3,2.2-1.6,2.7-2.9C996.6,511.1,998.6,507.6,1000.6,504.2z"/>
		</g>
		<g>
			<path fill="#83BFE3" d="M1146.2,524.5c6.8-0.4,13-0.8,18.8,0.2c2.5,0.2,5.3,1.7,7.8,1.9c6.5,1.5,9.4,4.2,14.2,7.1
				c2,0.9,4.2,3.1,5.7,4.7c2.1,1.5,4.2,3.1,5.2,5.4c0.8,1.1,1.6,2.2,2.4,3.4c0.8,1.1,2.1,1.5,2.9,2.7c0.9,1.7,1.9,4.1,2.9,6.4
				c1.6,2.2,2.5,4,3.5,6.3c0.3,1.8,0.1,4.4,1.6,6c1.8-0.3,1.5-2.1,2-3.4c-0.3-1.8,0-3.8,0.5-5.1c0.3-1.9,2-3.4,2.2-6
				c0.4-1.3,0.2-2.5-0.1-4.4c0.4-1.3,2.1-2.8,2.4-4.7c0.3-1.9,0.5-4.5,1.5-6.5c0.3-1.9,1.3-3.9,2.2-6c0.5-4.5,1.1-8.9,3-13
				c0.8-2.6,3.5-5.5,5.8-6.5c4-2.5,10.1-3.5,14.6-2.3c2,0.9,4.2,3.1,5.7,4.7c2.1,1.5,3.7,3.8,4.3,7.4c0.8,4.9-0.9,10.1-2.2,14.1
				c-1.8,4.6-2.3,9.1-3.5,13.7c-0.9,2-1.9,4-2.1,6.6c-2.1,6.6-3.6,13.1-5.1,19.5c-2.3,9.1-5.3,17.7-7.1,26.7c-0.9,2-1.2,4.6-2.1,6.6
				c-0.9,2-1.2,4.6-2.1,6.6c-1.2,4.6-1.7,9-2.9,13.6c-1.9,4-3,8.6-4.2,13.2c-0.9,2-1.2,4.6-1.5,6.5c-0.8,2.6-1.8,4.6-2.1,6.6
				c-0.5,4.5-1.7,9-3.5,13.7c-1.3,3.9-2.4,8.5-3.6,13.1c-0.3,1.9-1.2,4.6-2.1,6.6c-0.3,1.9-0.5,4.5-1.5,6.5
				c-2.1,6.6-3.6,13.1-5,20.1c-1.2,4.6-2.3,9.1-2.2,14.1c-0.2,2.5-1.1,5.2-1.3,7.7c0.4,2.4,0.2,5,0.5,7.4c-0.2,2.5,0.3,5.6,1.2,7.9
				c0.8,4.9,2.2,10.3,4,13.7c1.6,2.2,4,5.6,6.1,7.2c2.3,2.8,5,4.2,7.8,5.7c1.9,0.3,3.8,0,5.1,0.5c3.8,0.6,8.1,0,11.6-1.8
				c1.7-0.9,4.2-1.3,5.9-2.2c2.8-2.3,6-5.3,8.7-8.2c2.7-2.9,5.2-6.4,7.2-9.9c1-1.4,2.1-2.8,3-4.8c2-3.4,3.9-6.9,5.9-10.3
				c0.9-2,1.9-4,2.9-5.5c0.4-1.3,0.7-3.2,1.2-4.6c0.4-1.3,1.4-2.7,1.9-4c0.8-2.6,1.7-5.3,3-8.6c2-3.4,2.4-8.5,4.3-12.5
				c1-1.4,1.4-2.7,1.9-4c0.3-1.9,0.1-3.1,1.2-4.6c1.3-3.9,3.1-8,4.3-12.5c0.8-2.6,1.6-5.9,3-8.6c0.4-1.3,0.8-2.6,1.2-4.6
				c0.3-1.9,0.6-3.9,2.2-6c2.6-3.5,7.7-6.8,13.3-7.1c5.6-0.2,11.7,3.2,14.2,7.1c0.9,1.7,0.5,3,2.1,5.3c0.2,1.2,0.4,2.4,0.6,3.7
				c-0.6,3.8-2,7.2-3.3,10.5c-1.3,3.9-2,7.2-3.3,11.1c-1.7,5.3-3.4,9.9-5,15.8c-0.4,1.3-2.1,2.8-2.4,4.7c-0.8,2.6-1.1,5.2-2,7.2
				c-1.7,5.3-3.4,9.9-5.2,14.6c-1.4,2.7-1.7,5.3-2.6,7.3c-1.5,2.1-2.5,4.1-3.3,6.8c-0.8,2.6-2.4,4.7-3.3,6.8
				c-2.4,4.7-4.9,8.3-7.4,12.4c-1.4,2.7-2.4,4.7-4,6.3c-1.5,2.1-3.2,3.6-4.6,6.3c-1.6,1.5-3.2,3.6-4.8,5.1c-2.2,1.6-3.8,3.7-5.4,5.2
				c-4.6,2.6-7.7,6.8-12.4,8.8c-2.2,1.6-5.2,2.7-8.2,3.8c-10,4.1-23.7,4.3-32.9,1.4c-6.6-2.1-13.2-4.2-17.6-8.5
				c-2.9-2.7-5.6-4.1-7.9-6.3c-3.1-3.9-6.9-8.3-9.5-12.9c-1.7-2.9-3.5-6.3-4.7-9.9c-0.3-1.8-0.7-4.3-1.6-6c-1.2,0.2-1.6,1.5-2.1,2.8
				c-1.4,2.7-3.5,5.5-5,7.7c-0.9,2-2.5,4.1-3.5,5.5c-1.5,2.1-3.3,3-4.2,5c-2.6,3.5-5.2,6.4-8.4,10.1c-2.7,2.9-5.3,5.8-8.6,8.8
				c-1.6,1.5-3.4,2.4-4.9,4.5c-1.6,1.5-3.3,3-5,3.9c-1.6,1.5-3.3,3-4.9,4.5c-2.3,1-4.1,1.9-6.3,3.5c-1.7,0.9-3.4,2.4-5.7,3.4
				c-1.6,1.5-4,2.5-6.3,3.5c-2.3,1-4.7,2-7,3c-2.4,0.4-4.9,0.8-7.2,1.8c-1.2,0.2-1.8,0.3-3.1,0.5c-3.1-0.1-6.7,1.1-9.9,0.9
				c-3,0.5-6.2,0.3-8.8-0.5c-3.9-0.6-7.8-1.9-11.1-3.3c-1.3-0.4-2-0.9-3.3-1.4c-2.1-1.5-4.7-2.4-6.9-3.9c-2-0.9-3.5-2.6-5.6-4.1
				c-2.1-1.5-3.1-3.9-5.2-5.4c-1.6-2.2-3.7-3.8-5.3-6c-0.9-1.7-1.9-4.1-2.9-6.4c-1.5-1.6-2.5-4-3.5-6.3c-2-4.7-4.7-9.9-5.4-14.8
				c-0.5-3-2.1-5.3-1.9-8.4c-0.5-3-1.5-5.4-1.9-8.4c-0.1-4.4-1.4-9.1-0.9-13.6c-0.2-1.2,0.2-2.5,0-3.8c-0.9-5.5-0.5-11.2,0-16.2
				c0.4-5.7,0.2-10.7,0.7-15.7c0.2-2.5,1.2-4.6,1.4-7.1c0.2-2.5,0.5-5.1,0.7-7.6c0.8-2.6,1.2-4.6,1.4-7.1c0.8-2.6,1.2-4.6,1.4-7.1
				c0.8-2.6,1.8-4.6,2.1-6.6c0.2-2.5,0.6-4.5,1.5-6.5c0.8-2.6,1.2-4.6,1.4-7.1c1.8-4.6,3-8.6,4.3-12.5c0.9-2,1.8-4.7,2.1-6.6
				c1.9-4,3.7-8.1,5-12c0.9-2,1.9-4,2.8-6.1c0.9-2,1.2-4.6,2.8-6.1c1.9-4,3.7-8.1,5.6-12.1c0.9-2,2-3.4,2.9-5.5
				c2.6-3.5,3.8-7.5,6.3-11.6c1-1.4,2.7-2.9,3.6-4.9c1-1.4,2-3.4,2.9-5.5c1-1.4,2.1-2.8,3.7-4.3c2-3.4,4.6-6.3,6.7-9.2
				c2.6-3.5,5.3-5.8,7.3-9.3c1.6-1.5,2.7-2.9,4.4-3.8c1.6-1.5,2.6-3.5,3.6-4.9c6.5-6.6,14.3-12.2,22.8-17.9
				c7.9-5.6,17.9-9.7,29.2-12.7L1146.2,524.5z M1119.7,574.9c-1.1,0.8-2.2,1.6-3.9,3.1c-1,1.4-2.6,3.5-4.1,5.6
				c-3.3,3-6.5,6.6-9.5,10.9c-0.9,2-3.2,3.6-4.1,5.6c-1.6,1.5-2.5,4.1-4.1,5.6c-2.5,4.1-5,8.3-7.4,12.4c-1.5,2.1-2.5,4.1-3.4,6.2
				c-0.9,2-2.5,4.1-3.4,6.2c-0.8,2.6-2.4,4.7-3.3,6.8c-2.6,3.5-3.6,8.7-6,13.4c-1.9,4-2.9,9.2-5.3,14c-0.9,2-1.9,4-2.7,6.7
				c0.2,1.2-0.2,2.5-0.6,3.9c-0.4,1.3-0.9,2-1.4,3.3c-0.3,1.9-0.1,3.1-1.1,5.2c-0.4,1.3-1.4,2.7-1.9,4c0.2,1.2-0.1,3.1-0.6,4.5
				c-0.6,3.9-1.9,7.8-1.9,11.5c-1,5.8-2.6,11-3.1,16.1c0,8.1-2.4,16.6-1.1,25.2c-0.3,1.9,0.6,3.7,0.2,5c0.3,1.8-0.1,3.1,0.1,4.4
				c0.6,8,2,16.6,4.2,23.1c0.4,2.4,1.4,4.8,2.3,6.5c2.3,6.5,5.6,11.6,9.9,15.3c1.5,1.6,3,3.3,4.4,4.3c2,0.9,5.3,1.7,7.8,1.9
				c3.1,0.1,6.7-1.1,11-1.7c3-1.1,6.5-2.3,9.4-4c1.7-0.9,4.1-1.9,6.3-3.5c6.2-4.1,11-9.2,16-13.7c7.1-6.7,12.1-14.4,17.9-21.5
				c1.5-2.1,3.2-3.6,4.1-5.6c0.9-2,2.5-4.1,3.4-6.2c2.6-3.5,5-7.7,7.5-11.8c0.9-2,2.5-4.1,3.4-6.2c0.9-2,2.5-4.1,3.4-6.2
				c0.8-2.6,1.2-4.6,2.1-6.6c1.4-2.7,3.1-4.2,3.4-6.2c0.4-1.3,0.7-3.2,1.2-4.6c0.8-2.6,1.9-4,2.8-6.1c0.8-2.6,1.2-4.6,2-7.2
				c0.9-2,1.9-4,2.8-6.1c0.3-1.9,1.2-4.6,1.4-7.1c1.2-4.6,3-8.6,4.1-13.8c0.5-4.5,1.7-9,2.8-14.2c0.5-4.5,1.6-9.6,2.1-14.7
				c0.2-2.5-0.2-5,0.7-7.6c0.2-2.5-0.2-5,0.1-7.5c0.1-3.1-0.2-5.6-0.1-8.7c0.2-2.5-0.2-5.6,0-8.1c-0.5-3-0.2-5.6-0.7-8.6
				c-0.5-3-1.5-5.4-1.9-8.4c-0.4-2.4-0.9-5.5-1.9-7.8c-1.4-4.8-3.4-9.5-5.8-12.8c-1.6-2.2-2.5-4-4-5.6c-0.8-1.1-2.2-2.2-3.6-3.2
				c-1.4-1-2.8-2.1-3.5-2.6c-3.9-1.3-10.4-2.7-16.4-1.2c-3.6,1.2-7,3-10,4.1C1131.2,564.3,1125.8,569.5,1119.7,574.9z"/>
		</g>
		<g>
			<path fill="#83BFE3" d="M1431,301.5c8.4-2.4,20.1-3.8,24.3-0.8c2,0.9,6.4,2.7,11,10.1c4.5,7.5,3.9,7.4,5.2,12.3
				c1.6,5.8,3.6-3.9-0.6,25.1c-4.2,29-44.5,97.1-49.6,104.1c-1,1.4-8,10.2-9.2,11c-1.1,0.8-2.8,2.3-2.6,3.5c0.9,1.7,4.4-0.1,5.6-0.3
				c4.8-1.4,8.5-1.3,13.3-2.7c7.2-1.8,14-2.2,18.4,1.5c3.6,3.2,9.1,10.4,6.5,17.7c-1.4,2.7-3.4,6.2-5.7,7.8c-3.3,3-9.5,3.4-15.6,4.3
				c-5.5,0.9-10.9,2.3-16.5,2.6c-5.5,0.9-11,1.7-16.5,2.6c-2.4,0.4-5.4,1.5-8.5,1.3c-6.3-0.3-8.4,1.9-11.4,6.8
				c-2.6,3.5-5.8,7.1-8.9,10.8c-2.2,2.2-4.3,4.4-5.1,7.1c-1.4,3.3-1.9,7.8-3.2,11.7c-1.3,3.9-2.5,7.9-3.2,11.7
				c-0.3,1.9-1.3,3.9-1.6,5.9c-0.9,2-1.2,4.6-1.5,6.5c-0.3,1.9-1.3,3.9-1.6,5.9c-0.6,3.9-1.9,7.8-3.2,11.7c-0.3,1.9-1.3,3.9-1.6,5.9
				c-0.5,4.5-1.8,8.4-2.5,12.3c-1.3,3.9-2.5,7.9-3.8,11.8c-0.3,1.9-0.6,3.9-1,5.8c-0.9,2-1.9,4-2.2,6c-1.2,8.3-4.4,15.7-6.2,24.1
				c-0.6,3.9-1.9,7.8-3.2,11.7c-0.6,3.9-1.9,7.8-3.2,11.7c-1.6,5.9-3.2,11.7-4.6,18.2c-0.3,1.9-1.3,3.9-1.7,5.3
				c-0.9,2-0.6,4.5-1.5,6.5c-0.3,1.9-0.6,3.9-1,5.8c-1.2,4.6-1.1,8.9-1,13.3c-0.6,4.5-0.9,10.1-0.2,14.4c1,2.3,1.4,4.8,2.4,7.1
				c0.4,2.4,0.8,4.9,1.8,7.2c0.9,1.7,2.4,3.4,3.3,5.1c3.3,5.1,7.6,8.8,14.1,10.3c4.6,1.2,9.5,1,13.6-0.9c12.3-5.1,19-14.2,25-23.9
				c0.9-2,2-3.4,3-4.8c1-1.4,2-3.4,2.9-5.5c1.4-3.3,3.3-6.8,4.6-10.7c2.6-7.3,5.1-15.2,8.3-22.5c1.4-3.3,2.6-7.3,3.9-11.2
				c1.4-3.3,2.6-7.3,3.9-11.2c0.6-3.9,2.6-7.3,3.2-11.7c0.7-3.2,2.4-8.5,4.6-10.7c2-3.4,7.8-6.2,12-6.9c5-0.2,9.1,2.3,12,5
				c2.9,2.7,5,8,4.5,13c0.1,4.4-2.4,8.5-3.7,12.4c-0.9,2-1.3,3.9-2.1,6.6c-0.3,1.9-1.3,3.9-2.2,6c-0.3,1.9-1.3,3.9-2.2,6
				c-1.6,5.9-3.7,12.4-5.9,18.4c-1.3,3.9-3.1,8-4.4,11.9c-0.9,2-1.3,3.9-2.2,6c-0.9,2-1.9,4-2.2,6c-1.9,4-4.4,7.6-5.8,10.9
				c-0.9,2-1.9,4-3.5,5.5c-0.9,2-1.9,4-2.9,5.5c-0.9,2-2,3.4-3.6,4.9c-0.9,2-2,3.4-3.6,4.9c-2,3.4-5.2,6.4-7.9,9.4
				c-1.6,1.5-2.6,3.5-4.3,4.4c-1.6,1.5-3.4,2.4-5,3.9c-7.3,5.5-16,9.4-26.3,11.6c-1.2,0.2-2.4,0.4-3,0.5c-8.2-0.6-15.7-0.7-22.4-3.4
				c-3.3-1.4-6.6-2.1-9.4-4.2c-2.7-1.4-5.5-3.5-8.4-5.6c-2.2-2.2-4.5-4.9-6.7-7.1c-2.3-2.8-4-5.6-6.3-8.4c-3.5-6.3-6-14.1-8.4-21.8
				c-0.6-3.7-1.2-7.9-1.9-12.2c-0.4-2.4-0.9-5.5-0.6-8c0.1-3.1-0.3-5.6,0-8.1c0.2-2.5,0.5-5.1,0.7-7.6c0.2-2.5,0.5-5.1,1.3-7.7
				c0.5-4.5,1.6-9.6,2.8-14.2c0.6-4.5,2.3-9.1,3.5-13.7c1.2-4.6,3-8.6,3.6-13.1c0.8-2.6,1.8-4.6,2-7.2c0.9-2,1.2-4.6,2.1-6.6
				c1.2-4.6,1.7-9,3.5-13.7c0.8-2.6,1.9-4,2.1-6.6c-0.4-2.4,0.5-5.1,1.4-7.1c1.3-3.9,2.3-9.1,3.6-13.1c1.8-4.7,2.2-9.7,3.4-14.3
				c2.1-6.6,3.5-13.7,5.6-20.2c0.2-2.5,0.5-5.1,1.4-7.1c1.3-3.9,2.3-9.1,3.5-13.7c0.9-2,1.2-4.6,2-7.2c0.3-1.9,1.3-3.9,2.2-6
				c0.2-2.5,0.5-5.1,0.7-7.6c1.8-4.6,3.1-8,4.2-13.2c0.9-2,2.9-5.5,1.5-6.5c-0.8-1.1-2.5-0.2-4.4,0.1c-1.8,0.3-3.1-0.1-3.9-0.6
				c-5.8-1-9.9-3.4-11.5-9.4c-1-2.3-1.6-6-0.7-8.6c1.6-5.9,4.2-8.8,10.1-11.6c2.3-1,5.5-0.9,9.1-1.4c1.2-0.2,3-0.5,4.9-0.8
				c1.9,0.3,3.1,0.1,4.3-0.7c1.7-0.9,1.3-3.9,2.1-6.6c0.3-1.9,1.3-3.9,1.6-5.9c0.2-2.5,0.6-4.5,0.9-6.4c0.3-1.9,1.3-3.9,1.6-5.9
				c0.9-2,0.5-4.5,1.5-6.5c2.7-10.4,4.9-20.8,7.6-31.2c0.6-3.9,2.5-7.9,3.2-11.7c1.1-8.9,3.6-16.8,5.4-25.2
				c1.8-8.4,4.9-16.4,7.5-23.7c2.5-7.9,7.1-14.2,11.1-21.1c3.9-6.9,8.6-12.6,15.3-18c6.8-4.2,13.4-10.8,23.7-12.4
				C1426.3,302.6,1429.8,301.7,1431,301.5z M1399.7,436.3c6.1-9.1,10.9-18,16.3-27.5c3.2-7.4,7.8-13.7,10.4-21.6
				c0.8-2.6,2.4-4.7,3.2-7.4c3.1-8,5.7-15.3,8.1-23.8c1.6-5.9,2-10.9,2.9-17.3c0.1-3.1,1.5-6.8-2.8-10.2
				c-7.7,0.3-17.8,5.7-28.2,27.2c-10.4,21.6-4.6,9.2-6,12.5c-1.9,4.4-3.1,9.5-4.2,14.1c-0.4,1.3-0.7,3.2-1.2,4.6
				c-0.3,1.9-0.8,2.6-1.2,4.6c-0.9,2-1.2,4.6-2.1,6.6c-1.2,4.6-1.7,9-2.9,13.6c-1.4,7.1-3.5,13.7-5,20.1c-0.9,2-1.2,4.6-2.1,6.6
				c-0.3,1.9-0.6,4.5-1.5,6.5c-0.3,1.9,0.2,1.2-0.8,2.6c-0.3,1.9,0.4,5.3,1.9,6.9c1.8-0.3,8.7-6.4,9.1-7.7
				C1395.8,443.2,1397.7,439.7,1399.7,436.3z"/>
		</g>
		<g>
			<path fill="#83BFE3" d="M1536,460.9c6.4,0.9,11.4,0.7,16.5,1.8c2,0.9,3.3,1.4,5.3,1.7c1.9,0.3,3.2,0.7,4.7,1.8
				c1.9,0.3,2.7,1.4,4.1,2.5c6.6,2.1,11.6,6.3,16.1,11.2c2.2,2.2,3.9,5,6.2,7.8c0.9,1.7,2.3,2.8,3.1,3.9c2.6,4.6,4.7,9.9,6.8,15.8
				c1.2,3.6,1.9,7.8,2.5,12.1c0.7,4.3,0.1,8.7,0.1,12.5c-1.4,7.1-4.1,13.8-6.4,19.1c-2.8,6.1-9.5,10.9-17.9,9.7
				c-3.1-0.1-6.7-2.7-8.3-5c-2.9-2.7-5.3-6-5.4-10.4c-0.2-5,2.5-7.9,3.9-11.2c0.9-2,1.9-4,2.1-6.6c0.1-3.1-0.2-5.6-0.6-8
				c0,0,0,0-0.1-0.6c-0.7-4.3-2.6-8.3-4.9-11.1c-4.2-6.8-9.2-11-16.5-13.7c-1.9-0.3-3.9-0.6-5.8-1c-1.9-0.3-4.4,0.1-6.8,0.4
				c-9.8,1.5-16.7,5.1-22.1,10.3c-4.4,3.8-7.5,8-9.9,12.8c-0.3,1.9-2,3.4-2.3,5.4c-0.4,1.3,0,3.8-0.4,5.7c-0.8,2.6-1.2,4.6-0.8,7
				c0.5,3,1.7,6.6,2.7,9.6c1.1,3,2.7,5.2,4.3,7.4c1,2.3,2.6,4.6,4.8,6.7c1.7,2.9,4.1,6.2,7.2,6.4c1.9,0.3,3.8,0,5.7,0.4
				c5.2,1.1,9.8,2.8,14,5.3c5.5,3.5,10.7,8.3,13,15.4c1.5,5.4,0.2,9.3-1.7,12.8c-1.9,4-4.5,7-9.2,8.9c-5.9,2.2-13.3,2.7-19.1,1.7
				c-1.3-0.4-2.6-0.8-3.9-1.3c-1.9-0.3-3.1-0.1-4.5-0.6c-1.3-0.4-2.1-1.5-3.4-2c-1.3-0.4-2.6-0.8-4-1.9c-2.7-1.4-3.8-4.4-8.1-3.7
				c-1.8,0.3-4.2,1.3-6,1.6c-2.4,0.4-4.9,0.8-6.6,1.7c-1.8,0.3-3.5,1.8-5.8,2.8c-5.3,2.1-10.9,6.1-14.7,9.8c-2.8,2.3-4.7,5.7-7.5,8
				c-2.1,2.8-4.1,5.6-6.1,9.1c-3.9,6.9-6.6,13.5-9.1,21.4c-0.4,1.3-0.6,3.8-1,5.8c-0.4,1.3-0.3,1.9-0.7,3.2
				c-0.5,0.7-0.3,1.9-0.1,3.1c-0.3,1.9-0.6,3.9-0.9,6.4c0.4,2.4,0.1,4.4-0.2,6.9c0.3,1.8,1.2,3.6,1.5,5.4c1.6,14.1,7.7,25,14,33.4
				c1.6,2.2,3.8,4.4,6,6.6c1.3,0.4,2.7,1.4,3.5,2.6c1.4,1,2.2,2.2,2.9,2.7c4.9,3.6,10.8,5.2,16.8,7.4c2.7,1.4,6,2.2,9.2,2.9
				c3.1,0.1,6.4,0.9,9.5,1c7,0.8,14.4,0.2,21.8-0.3c4.4-0.1,8-0.6,11.7-1.2c4.3-0.7,7.8-1.9,11.5-2.4c3.7-0.6,7.1-2.4,10.7-3.6
				c7.1-2.4,12.3-5.1,18-8.4c2.9-1.7,5.8-2.8,8.1-4.4c2.8-2.3,5-3.9,7.9-5.6c1-1.4,1.5-2.1,2.6-3.5c1.7-0.9,2.9-1.7,4-2.5
				c1-1.4,1.4-2.7,2.6-3.5c1.7-0.9,2.9-1.7,3.9-3.1c2.2-2.2,3.7-4.3,5.2-6.4c4.3-4.4,7.2-9.9,10.3-14.1c2.1-2.8,2.9-5.5,5-7.7
				c1.5-2.1,2.3-5.4,3.7-8.1c3-4.8,5.2-10.8,7.5-16.2c2.6-7.3,5.8-14.7,7.8-21.8c1.2-4.6,1.7-9,3.5-13.7c0.9-2,2.4-4.7,4.6-6.3
				c4.5-3.2,11.1-4.9,16.5-2.6c0.7,0.5,2.2,2.2,3.6,3.2c2.1,1.5,3.6,3.2,5.3,6c0.1,0.6,0.3,1.8,0.5,3c-0.3,1.9,0.1,4.4-0.4,5.7
				c0.3,1.8-1.3,3.9-1.5,6.5c-1.3,3.9-2.4,8.5-3.7,12.4c-1.6,5.9-4.3,12.5-5.9,18.4c-3.1,8-7,14.8-10.2,22.8c-2,3.4-4.5,7-6.5,10.4
				c-0.9,2-2,3.4-2.9,5.5c-1.6,1.5-2.7,2.9-3.6,4.9c-1,1.4-2.7,2.9-3.6,4.9c-1.6,1.5-2.7,2.9-3.7,4.3c-1.5,2.1-2.6,3.5-4.2,5
				c-2.6,3.5-5.3,5.8-8,8.8c-1.6,1.5-2.6,3.5-4.2,5c-3.4,2.4-6.6,5.4-10,7.8c-1.6,1.5-3.4,2.4-5,3.9c-1.7,0.9-3.4,2.4-5,3.9
				c-5.7,3.4-10.8,6.7-17.9,9.7c-1.7,0.9-4.2,1.3-6.4,2.9c-4,2.5-8.8,3.9-13.5,5.2c-2.4,0.4-4.8,1.4-7.2,1.8
				c-2.4,0.4-4.9,0.8-7.1,2.4c-3.7,0.6-6.7,1.1-10.4,1.6c-8.7,0.1-16.6,2-24.8,1.4c-3.8,0-7.4,0.5-11.3-0.1c-3.8,0-7.6-0.7-10.8-1.4
				c-7.1-1.4-14.1-2.2-20.1-5c-2.6-0.8-6-2.2-8.7-3.6c-3.2-0.7-5.4-2.9-8.2-4.3c-2.7-1.4-5.5-3.5-8.4-5.6c-2.2-2.2-4.9-3.6-7.1-5.8
				c-0.8-1.1-1.7-2.9-3.1-3.9c-1.4-1-2.7-1.4-3.5-2.6c-0.9-1.7-1.7-2.9-3.2-4.5c-1.6-2.2-3.8-4.4-5.6-7.9c-0.9-1.7-1.7-2.9-2.6-4.6
				c-1.7-2.9-3.5-6.3-4.6-9.3c-3.6-6.9-4.8-14.9-7.3-22.6c-0.1-0.6-0.2-1.2-0.3-1.8c0.8-2.6-0.3-5.6-0.7-8.6c-0.3-1.8,0-3.8-0.2-5.6
				c-0.6-8,0.8-15.1,1.6-21.5c0.6-3.9,2.1-6.6,2.7-10.4c0.2-2.5,1.6-5.9,2.9-9.2c2.2-6,5.1-11.4,8-16.9c1-1.4,1.4-2.7,2.5-4.1
				c0.4-1.3,2.2-2.2,2.6-3.5c1.5-2.1,2.4-4.7,3.9-6.9c1.6-1.5,3.8-3.7,5.4-5.2c1.5-2.1,3.8-3.7,5.9-5.9c1.6-1.5,3.7-4.3,5.9-5.9
				c2.2-1.6,4.6-2.6,6.8-4.2c2.2-2.2,4.5-3.2,8.1-4.4c2.9-1.7,4-2.5,8.2-3.8c1.1-0.8,2.9-1.7,4.7-2c0.6-0.1,4.3-0.7,4.7-2
				c-0.2-1.2-2.5-4-3.3-5.1c-1.7-2.9-2.6-4.6-3.5-6.3c-1.9-4.1-3.4-9.5-4.8-14.9c-0.5-3-1-6.1-1.3-8.5c0.2-2.5,0.5-5.1,0.1-7.5
				c0.2-2.5,0.5-5.1,0.8-7c0.8-2.6,1.1-5.2,1.4-7.1c0.4-1.3,1.4-2.7,1.9-4c0.4-1.3,0.2-2.5,0.6-3.9c0.4-1.3,1.4-2.7,2.5-4.1
				c1-1.4,0.7-3.2,1.9-4c0.8-2.6,2.6-3.5,4-6.3c0.9-2,2.6-3.5,4.1-5.6c1.6-1.5,3.3-3,4.9-4.5c2.2-1.6,3.8-3.7,5.5-4.6
				c2.2-1.6,3.9-3.1,5.5-4.6c2.2-1.6,4.6-2.6,6.9-3.6c4.5-3.2,10.6-4.2,15.9-6.2C1527.5,462.2,1531.8,461.5,1536,460.9z"/>
		</g>
		<g>
			<g>
				<path fill="#83BFE3" d="M125.9,672.3c3.1-1.9,6.2-3.1,9.3-4.9c3.1-1.2,5.6-3.7,8.6-5.6c3.1-1.2,5.6-3.7,8-5.6
					c4.9-4.9,9.3-9.9,13.6-14.8c3.7-5.6,7.4-11.1,9.9-17.9c1.2-3.1,3.1-6.8,3.7-10.5c1.2-3.7,3.1-6.8,3.1-11.1
					c-0.6-8-6.8-13.6-13-15.4c-4.3-0.6-8.6,0-11.7,1.9c-3.1,1.9-5.6,4.3-6.8,7.4c-0.6,2.5-1.2,4.9-1.9,7.4
					c-2.5,9.3-7.4,16.7-12.3,23.5c-1.2,1.9-3.1,3.1-4.9,4.3c-1.2,1.9-2.5,3.1-4.3,4.3c-1.9,1.2-3.7,2.5-5.6,3.7
					c-3.1,1.9-8,3.7-12.3,5.6c-2.5,0.6-4.9,1.9-7.4,1.9c-2.5,0.6-4.9,1.2-7.4,1.2c-13.6,1.9-29.6,0.6-38.3-5.6
					c-1.9-1.2-3.7-2.5-5.6-3.7c-6.8-4.9-11.7-12.3-14.8-21c-1.9-4.3-3.1-9.3-3.7-14.8v-8c-0.6-3.1,0-5.6,0.6-8
					c0.6-3.1,0.6-5.6,1.2-8c0.6-2.5,1.2-4.3,2.5-6.8c3.1-8.6,7.4-16.7,13.6-22.2l4.9-4.9c1.2-1.2,3.1-2.5,4.9-3.7
					c3.1-2.5,6.8-5.6,11.1-6.8c4.3-1.9,8-3.7,12.3-5.6c4.3-2.5,8.6-3.1,13.6-4.3c2.5-1.2,4.9-1.2,7.4-1.9c8-1.9,16-1.9,24.7-2.5h8.6
					c3.1,0,6.2-0.6,9.3,0c1.2,0,2.5,0.6,3.7,0.6h4.3c2.5,0,4.9,1.2,7.4,1.2c3.1,0.6,5.6,0.6,8,1.2c3.1,0.6,5.6,0.6,8,1.2
					c4.9,0.6,10.5,1.9,15.4,2.5c2.5,0.6,4.9,0.6,7.4,1.2c2.5,0.6,4.9,1.9,7.4,1.9c1.9,0,3.1,0,4.3,0.6c1.2,0,2.5,0.6,3.7,0.6
					c2.5,0.6,4.9,0.6,8,1.2c4.3,0.6,9.9,2.5,15.4,2.5c4.9,0.6,10.5,1.9,16,1.9c3.1,0,6.2,0.6,8.6,0c6.2,0,11.7,0.6,16.7-0.6
					c2.5-0.6,5.6-1.9,7.4,0c0.6,1.2-0.6,3.1-1.2,3.7c-0.5,0.5-0.8,1-1.1,1.6c11.7-1.6,23.5-2.9,35.2-4.5c0.2-0.3,0.3-0.6,0.5-0.8
					c1.2-1.9,4.9-3.1,6.8-3.7c4.3-2.5,6.8-4.9,9.9-8.6c1.9-1.9,3.1-3.1,3.7-5.6c4.3-11.1-3.1-20.4-11.7-22.8c-2.5,0-4.9-1.2-7.4-0.6
					c-3.1,0-5.6,0.6-8,1.2c-2.5,0.6-4.3,1.9-6.8,2.5c-1.9,1.2-4.3,1.9-6.8,2.5c-4.3,1.9-9.9,2.5-15.4,3.1
					c-5.6,0.6-11.7,0.6-17.3,1.2c-3.1,0-5.6-0.6-8.6-0.6c-3.1,0-6.2,0-8.6-0.6c-5.6-0.6-11.1-1.2-16.7-1.9c-2.5-0.6-4.9-1.2-7.4-1.2
					c-8-1.9-16-2.5-23.5-4.3c-2.5-0.6-5.6-0.6-8-1.2c-2.5-0.6-4.9-1.2-7.4-1.9c-5.6-0.6-10.5-1.9-16-2.5c-2.5-0.6-5.6-0.6-8.6-1.2
					c-7.4-1.2-16.7-1.2-25.3-1.9c0-0.6,0-0.6,0-0.6h-6.8c-15.4,1.2-30.2,1.9-42.6,5.6c-3.7,1.2-6.8,1.9-9.9,2.5
					c-3.1,1.2-5.6,2.5-8.6,3.7c-3.1,1.2-5.6,2.5-8.6,3.7c-8,4.3-16,8-22.8,13.6c-6.8,5.6-13.6,10.5-18.5,17.9
					c-1.9,2.5-3.1,4.9-4.9,7.4c-1.2,2.5-3.1,4.9-4.3,7.4c-1.2,2.5-3.1,5.6-4.3,8c-0.6,1.9-0.6,3.7-1.2,5.6
					c-2.5,4.9-3.1,10.5-4.9,16.7c0,1.2,0,3.7-0.6,5.6C0,587.1,0,589,0,591.5c0,1.9,0.6,4.3,0,6.2c0,4.3,0.6,8.6,1.2,13
					c0,1.9,0.6,3.7,1.2,5.6c1.9,8,3.7,14.8,7.4,21c1.9,3.1,3.1,6.2,4.9,9.3c3.7,4.9,8,10.5,13,14.8c2.5,1.9,5.6,3.7,8.6,5.6
					c2.5,1.9,5.6,3.7,8.6,5.6c6.2,3.1,13,4.9,21,6.8c4.3,0.6,8,1.2,13,1.2c1.9,0,4.3,0.6,6.2,0c2.5,0,4.3-0.6,6.8-0.6
					c8.6,0,16-1.9,23.5-3.7C119.1,674.8,122.2,673.5,125.9,672.3z"/>
			</g>
		</g>
	</g>
	<g>
		<g>
			<path fill="#83BFE3" d="M1000.1,1105.9c0-10.1,0-18.3,0.1-24.8c0-3.1,0.6-5.8,2-8.1c2.1-4.3,6.4-8.7,16.9-7.7
				c3.7,0.3,6.8,1.6,9.2,4.3c5.7,6.1,4.4,12.1,4.4,23.5c0,5.7,0,10.3,0.1,13.9v44.8c-0.1,3.2-0.2,7.8-0.1,14v15.3
				c-0.1,9.7-5.5,15.3-14.2,15.3c-6.5,0-11.6-1.5-15.1-4.7c-1.3-1.1-1.8-1.5-1.6-1.5c-3.2-2.3-6.6-5.5-10.3-10l-0.1-0.1l-0.3-0.3
				c-1.6-1.8-24.1-25.6-32.7-34.5c-2.7-2.8-5.4-5.8-8.3-8.8c-1.9-2-3.1-3.2-3.5-3.6c-0.1-0.1-1-0.5-2.5-1.1
				c-2.1-0.8-4.1-0.4-5.9,1.3c-0.4,0.4-0.7,0.8-1,1.3c-0.1,0.2-0.1,0.4-0.2,0.5h-0.1c-1,1.5-1.5,3.1-1.5,4.5
				c-0.1,3.2-0.2,10.2-0.1,20.9v22.2c-0.1,3.5-1.5,6.9-4.4,9.9c-4.7,5.2-15.4,6-21.3,2c-4.1-3-6.1-7-6.2-12v-98.8
				c0.1-0.8,0.1-1.4,0.1-1.8c0.2-3,0.9-5.6,2.3-7.8l0.1-0.1c3-4.9,7.7-7.5,14.1-8c8.3-0.5,7.8,0.1,25.5,18.1l4.3,4.3
				c1.9,2.1,3.3,3.5,4.1,4.4c1.1,1,3.2,3.2,6.3,6.3c2.7,2.8,4.8,4.9,6.3,6.4l11.9,12.3c5.5,5.6,9.5,9.7,12,12.3
				c2.7,2.8,4.6,4.7,5.8,5.6c0.8,0.6,1.6,0.8,2.4,0.5c1.4-0.6,1.8-3.7,1.8-5.8V1105.9z M990.8,1179.9L990.8,1179.9L990.8,1179.9z
				 M991.1,1180.3"/>
		</g>
		<g>
			<path fill="#83BFE3" d="M1195.3,1085.9c-1.1,2.1-9.2,14.1-24.2,36c-17,24.9-17.5,28.8-18.5,35.4c-0.2,1.5-0.3,2.9-0.4,4.3
				c-0.1,1.7-0.1,4.6,0,8.5c0,3.5,0,6.4-0.1,8.5c-0.4,7.5-1.9,14-8.5,17c-5.7,2.4-17.2,2.4-20.8-7.4c-1-2.6-1.6-5.1-1.7-7.5
				c-0.1-2.8-0.1-8.6,0-17.4c0.1-12.1-1.5-16.3-18.4-41.3c-15.1-21.9-23.1-33.9-24.2-36c-4-7.6-1-16.8,7.4-20.1
				c11.9-4.4,11.9-3.8,27.9,20.1l19.3,27.1c0.8,1.2,1.7,1.9,2.6,2.2c0.3,0.1,0.5,0.1,0.7,0.1c1.4,0.4,2.7-0.4,4.1-2.3l19.3-27.1
				c8.1-12,12.5-18.3,13.5-19.1c7.3-5.8,19.9-0.7,23.1,8.3C1197.7,1078.4,1197.3,1082.1,1195.3,1085.9z"/>
		</g>
	</g>
	<g>
		<g>
			<path fill="#83BFE3" d="M613.4,488c-1.7-1.7-2.7-3.9-2.7-6.5l0-472.4c0-5,4.1-9.1,9.1-9.1c5,0,9.1,4.1,9.1,9.1v472.4
				c0,5-4.1,9.1-9.1,9.1C617.3,490.6,615,489.6,613.4,488z"/>
		</g>
		<g>
			<path fill="#83BFE3" d="M486.9,258.3c-1.7-1.7-2.7-3.9-2.7-6.5c0-5,4.1-9.1,9.1-9.1c64.7,0,117.4-52.7,117.4-117.4
				c0-5,4.1-9.1,9.1-9.1c5,0,9.1,4.1,9.1,9.1c0,74.8-60.9,135.7-135.7,135.7C490.8,261,488.5,260,486.9,258.3z"/>
		</g>
		<g>
			<path fill="#83BFE3" d="M486.9,142.1c-1.7-1.7-2.7-3.9-2.7-6.5c0-5,4.1-9.1,9.1-9.1c64.7,0,117.4-52.7,117.4-117.4
				c0-5,4.1-9.1,9.1-9.1c5,0,9.1,4.1,9.1,9.1c0,74.8-60.9,135.7-135.7,135.7C490.8,144.8,488.5,143.8,486.9,142.1z"/>
		</g>
		<g>
			<path fill="#83BFE3" d="M486.9,373.1c-1.7-1.7-2.7-3.9-2.7-6.5c0-5,4.1-9.1,9.1-9.1c64.7,0,117.4-52.7,117.4-117.4
				c0-5,4.1-9.1,9.1-9.1c5,0,9.1,4.1,9.1,9.1c0,74.8-60.9,135.7-135.7,135.7C490.8,375.8,488.5,374.8,486.9,373.1z"/>
		</g>
		<g>
			<path fill="#83BFE3" d="M650.5,251.9c-24.6-24.6-39.8-58.5-39.8-95.9c0-5,4.1-9.1,9.1-9.1c5,0,9.1,4.1,9.1,9.1
				c0,64.7,52.7,117.4,117.4,117.4c5,0,9.1,4.1,9.1,9.1c0,5-4.1,9.1-9.1,9.1C709,291.6,675,276.4,650.5,251.9z"/>
		</g>
		<g>
			<path fill="#83BFE3" d="M650.5,135.7c-24.6-24.6-39.8-58.5-39.8-95.9c0-5,4.1-9.1,9.1-9.1c5,0,9.1,4.1,9.1,9.1
				c0,64.7,52.7,117.4,117.4,117.4c5,0,9.1,4.1,9.1,9.1c0,5-4.1,9.1-9.1,9.1C709,175.4,675,160.2,650.5,135.7z"/>
		</g>
		<g>
			<path fill="#83BFE3" d="M650.5,366.7c-24.6-24.6-39.8-58.5-39.8-95.9c0-5,4.1-9.1,9.1-9.1c5,0,9.1,4.1,9.1,9.1
				c0,64.7,52.7,117.4,117.4,117.4c5,0,9.1,4.1,9.1,9.1c0,5-4.1,9.1-9.1,9.1C709,406.5,675,391.2,650.5,366.7z"/>
		</g>
	</g>
	<g>
		<g>
			<path fill="#83BFE3" d="M868.2,403c-1.7-1.7-2.7-3.9-2.7-6.5l0-302.5c0-5,4.1-9.1,9.1-9.1c5,0,9.1,4.1,9.1,9.1l0,302.5
				c0,5-4.1,9.1-9.1,9.1C872.2,405.7,869.9,404.7,868.2,403z"/>
		</g>
		<g>
			<path fill="#83BFE3" d="M787.2,256c-1.7-1.7-2.7-3.9-2.7-6.5c0-5,4.1-9.1,9.1-9.1c39.6,0,71.9-32.2,71.9-71.9
				c0-5,4.1-9.1,9.1-9.1c5,0,9.1,4.1,9.1,9.1c0,49.7-40.4,90.1-90.1,90.1C791.2,258.6,788.9,257.6,787.2,256z"/>
		</g>
		<g>
			<path fill="#83BFE3" d="M787.2,181.6c-1.7-1.7-2.7-3.9-2.7-6.5c0-5,4.1-9.1,9.1-9.1c39.6,0,71.9-32.2,71.9-71.9
				c0-5,4.1-9.1,9.1-9.1c5,0,9.1,4.1,9.1,9.1c0,49.7-40.4,90.1-90.1,90.1C791.2,184.2,788.9,183.2,787.2,181.6z"/>
		</g>
		<g>
			<path fill="#83BFE3" d="M787.2,329.5c-1.7-1.7-2.7-3.9-2.7-6.5c0-5,4.1-9.1,9.1-9.1c39.6,0,71.9-32.2,71.9-71.9
				c0-5,4.1-9.1,9.1-9.1c5,0,9.1,4.1,9.1,9.1c0,49.7-40.4,90.1-90.1,90.1C791.2,332.2,788.9,331.1,787.2,329.5z"/>
		</g>
		<g>
			<path fill="#83BFE3" d="M892,251.8c-16.3-16.3-26.4-38.9-26.4-63.7c0-5,4.1-9.1,9.1-9.1c5,0,9.1,4.1,9.1,9.1
				c0,39.6,32.2,71.9,71.9,71.9c5,0,9.1,4.1,9.1,9.1c0,5-4.1,9.1-9.1,9.1C930.8,278.3,908.3,268.2,892,251.8z"/>
		</g>
		<g>
			<path fill="#83BFE3" d="M892,177.4c-16.3-16.3-26.4-38.9-26.4-63.7c0-5,4.1-9.1,9.1-9.1c5,0,9.1,4.1,9.1,9.1
				c0,39.6,32.2,71.9,71.9,71.9c5,0,9.1,4.1,9.1,9.1c0,5-4.1,9.1-9.1,9.1C930.8,203.9,908.3,193.7,892,177.4z"/>
		</g>
		<g>
			<path fill="#83BFE3" d="M892,325.3c-16.3-16.3-26.4-38.9-26.4-63.7c0-5,4.1-9.1,9.1-9.1c5,0,9.1,4.1,9.1,9.1
				c0,39.6,32.2,71.9,71.9,71.9c5,0,9.1,4.1,9.1,9.1c0,5-4.1,9.1-9.1,9.1C930.8,351.8,908.3,341.7,892,325.3z"/>
		</g>
	</g>
	<g>
		<g>
			<path fill="#83BFE3" d="M391.3,382.1c-1.7-1.7-2.7-3.9-2.7-6.5V174.2c0-5,4.1-9.1,9.1-9.1c5,0,9.1,4.1,9.1,9.1l0,201.4
				c0,5-4.1,9.1-9.1,9.1C395.2,384.7,392.9,383.7,391.3,382.1z"/>
		</g>
		<g>
			<path fill="#83BFE3" d="M337.4,284.2c-1.7-1.7-2.7-3.9-2.7-6.5c0-5,4.1-9.1,9.1-9.1c24.7,0,44.8-20.1,44.8-44.8
				c0-5,4.1-9.1,9.1-9.1c5,0,9.1,4.1,9.1,9.1c0,34.8-28.3,63.1-63.1,63.1C341.3,286.8,339,285.8,337.4,284.2z"/>
		</g>
		<g>
			<path fill="#83BFE3" d="M337.4,234.6c-1.7-1.7-2.7-3.9-2.7-6.5c0-5,4.1-9.1,9.1-9.1c24.7,0,44.8-20.1,44.8-44.8
				c0-5,4.1-9.1,9.1-9.1c5,0,9.1,4.1,9.1,9.1c0,34.8-28.3,63.1-63.1,63.1C341.3,237.3,339,236.3,337.4,234.6z"/>
		</g>
		<g>
			<path fill="#83BFE3" d="M337.4,333.1c-1.7-1.7-2.7-3.9-2.7-6.5c0-5,4.1-9.1,9.1-9.1c24.7,0,44.8-20.1,44.8-44.8
				c0-5,4.1-9.1,9.1-9.1c5,0,9.1,4.1,9.1,9.1c0,34.8-28.3,63.1-63.1,63.1C341.3,335.8,339,334.8,337.4,333.1z"/>
		</g>
		<g>
			<path fill="#83BFE3" d="M407.1,281.4c-11.4-11.4-18.5-27.2-18.5-44.6c0-5,4.1-9.1,9.1-9.1c5,0,9.1,4.1,9.1,9.1
				c0,24.7,20.1,44.8,44.8,44.8c5,0,9.1,4.1,9.1,9.1c0,5-4.1,9.1-9.1,9.1C434.3,299.9,418.5,292.8,407.1,281.4z"/>
		</g>
		<g>
			<path fill="#83BFE3" d="M407.1,231.9c-11.4-11.4-18.5-27.2-18.5-44.6c0-5,4.1-9.1,9.1-9.1c5,0,9.1,4.1,9.1,9.1
				c0,24.7,20.1,44.8,44.8,44.8c5,0,9.1,4.1,9.1,9.1c0,5-4.1,9.1-9.1,9.1C434.3,250.3,418.5,243.3,407.1,231.9z"/>
		</g>
		<g>
			<path fill="#83BFE3" d="M407.1,330.3c-11.4-11.4-18.5-27.2-18.5-44.6c0-5,4.1-9.1,9.1-9.1c5,0,9.1,4.1,9.1,9.1
				c0,24.7,20.1,44.8,44.8,44.8c5,0,9.1,4.1,9.1,9.1c0,5-4.1,9.1-9.1,9.1C434.3,348.8,418.5,341.8,407.1,330.3z"/>
		</g>
	</g>
</g>
</svg>
