<?xml version="1.0" ?><svg enable-background="new 0 0 800 800" id="Layer_1" version="1.1" viewBox="0 0 800 800" xml:space="preserve" xmlns="http://www.w3.org/2000/svg" xmlns:xlink="http://www.w3.org/1999/xlink"><g><path d="M290.1,769.1c33.1,0,70.4-9.6,109.9-32l181.3-104.5l0,0c0,0,0,0,1.1,0c61.9-39.5,94.9-105.6,94.9-192V74.7   c0-18.1-13.9-32-32-32h-256c-18.1,0-32,13.9-32,32v314.7l-150.4,93.9c-85.3,53.3-91.7,146.1-53.3,209.1   C179.2,736,228.3,769.1,290.1,769.1z M577.1,552.5c-6.4-13.9-12.8-30.9-18.1-49.1c-5.3-16-4.3-24.5-2.1-26.7s8.5-6.4,25.6-6.4h29.9   C606.9,504.5,595.2,531.2,577.1,552.5z M592,106.7h21.3v96H592V106.7z M506.7,106.7H528v96h-21.3V106.7z M421.3,106.7h21.3v96   h-21.3V106.7z M406.4,434.1c9.6-5.3,14.9-16,14.9-26.7V266.7h192v140.8h-32c-44.8,0-66.1,18.1-76.8,33.1   c-10.7,14.9-20.3,41.6-6.4,84.3c8.5,25.6,18.1,50.1,26.7,67.2l-132.3,76.8L272,519.5L406.4,434.1z M218.7,554.7l115.2,141.9   c-58.7,20.3-104.5-2.1-125.9-37.3C189.9,629.3,187.7,587.7,218.7,554.7z"/></g></svg>